<svg width="46" height="46" viewBox="0 0 46 46" fill="none" xmlns="http://www.w3.org/2000/svg">
<path d="M22.8042 22.6914C18.117 22.6914 14.3086 18.9157 14.3086 14.2687C14.3086 9.62165 18.117 5.84595 22.8042 5.84595C27.4914 5.84595 31.2998 9.62165 31.2998 14.2687C31.2998 18.9157 27.4914 22.6914 22.8042 22.6914ZM22.8042 6.78987C18.6479 6.78987 15.279 10.1481 15.279 14.2687C15.279 18.3893 18.6662 21.7293 22.8042 21.7293C26.9421 21.7293 30.3294 18.3711 30.3294 14.2687C30.3294 10.1662 26.9604 6.78987 22.8042 6.78987Z" fill="white"/>
<path d="M22.8037 22.8548C18.0249 22.8548 14.125 18.9883 14.125 14.2505C14.125 9.51275 18.0249 5.66443 22.8037 5.66443C27.5824 5.66443 31.4824 9.51274 31.4824 14.2687C31.4824 19.0246 27.5824 22.8729 22.8037 22.8729V22.8548ZM22.8037 6.02748C18.2263 6.02748 14.4912 9.71242 14.4912 14.2687C14.4912 18.8249 18.2263 22.5099 22.8037 22.5099C27.381 22.5099 31.1162 18.8068 31.1162 14.2687C31.1162 9.73057 27.3994 6.02748 22.8037 6.02748ZM22.8037 21.9109C18.5559 21.9109 15.0954 18.48 15.0954 14.2687C15.0954 10.0573 18.5559 6.60836 22.8037 6.60836C27.0515 6.60836 30.512 10.0392 30.512 14.2505C30.512 18.4619 27.0515 21.8927 22.8037 21.8927V21.9109ZM22.8037 6.9714C18.7573 6.9714 15.4616 10.2388 15.4616 14.2687C15.4616 18.2985 18.7573 21.566 22.822 21.566C26.8867 21.566 30.1824 18.2985 30.1824 14.2687C30.1824 10.2388 26.8684 6.9714 22.8037 6.9714Z" fill="white"/>
<path d="M33.4399 40.1538H12.5854C12.3291 40.1538 12.1094 39.936 12.1094 39.6819V32.548C12.1094 26.594 16.998 21.7291 23.0218 21.7291C29.0456 21.7291 33.9342 26.5758 33.9342 32.548V39.6819C33.9342 39.936 33.7145 40.1538 33.4582 40.1538H33.4399ZM13.0615 39.2099H32.9455V32.548C32.9455 27.1022 28.478 22.6912 23.0035 22.6912C17.529 22.6912 13.0615 27.1022 13.0615 32.548V39.2099Z" fill="white"/>
<path d="M33.4394 40.3353H12.5849C12.2187 40.3353 11.9258 40.0448 11.9258 39.6818V32.5479C11.9258 26.485 16.906 21.5657 23.003 21.5657C29.1 21.5657 34.0802 26.5031 34.0802 32.5479V39.6818C34.0802 40.0448 33.7873 40.3353 33.4211 40.3353H33.4394ZM23.003 21.9106C17.089 21.9106 12.292 26.6847 12.292 32.5479V39.6818C12.292 39.8452 12.4201 39.9722 12.5849 39.9722H33.4394C33.6042 39.9722 33.7323 39.8452 33.7323 39.6818V32.5479C33.7323 26.6847 28.917 21.9106 23.003 21.9106ZM32.9633 39.3914H13.061C12.9694 39.3914 12.8779 39.3188 12.8779 39.2098V32.5479C12.8779 27.0114 17.4186 22.5096 23.003 22.5096C28.5874 22.5096 33.1281 27.0114 33.1281 32.5479V39.2098C33.1281 39.3006 33.0549 39.3914 32.945 39.3914H32.9633ZM13.2441 39.0283H32.7802V32.5479C32.7802 27.2111 28.4043 22.8726 23.0213 22.8726C17.6383 22.8726 13.2441 27.2111 13.2441 32.5479V39.0283Z" fill="white"/>
</svg>
