<svg width="28" height="29" viewBox="0 0 28 29" fill="none" xmlns="http://www.w3.org/2000/svg">
<g clip-path="url(#clip0_1_2391)">
<path d="M19.4191 5.14681C19.4191 5.28579 19.3711 5.41213 19.2632 5.51321L9.74311 14.6858L19.2752 24.389C19.467 24.5785 19.467 24.8944 19.2752 25.0966C19.0953 25.2987 18.7956 25.2987 18.6038 25.0966L8.72396 15.0269C8.62804 14.9385 8.58008 14.7995 8.58008 14.6732C8.58008 14.5342 8.64003 14.4078 8.73595 14.3194L18.6397 4.79304C18.8316 4.60353 19.1313 4.61616 19.3112 4.83095C19.3951 4.93202 19.4311 5.04573 19.4311 5.17208L19.4191 5.14681Z" fill="white"/>
</g>
<defs>
<clipPath id="clip0_1_2391">
<rect width="20.5941" height="10.839" fill="white" transform="translate(8.58008 25.2483) rotate(-90)"/>
</clipPath>
</defs>
</svg>
