<svg width="46" height="46" viewBox="0 0 46 46" fill="none" xmlns="http://www.w3.org/2000/svg">
<path d="M30.6641 34.5C31.6807 34.5 32.6558 34.9039 33.3746 35.6228C34.0935 36.3416 34.4974 37.3167 34.4974 38.3333C34.4974 39.35 34.0935 40.325 33.3746 41.0439C32.6558 41.7628 31.6807 42.1667 30.6641 42.1667C29.6474 42.1667 28.6724 41.7628 27.9535 41.0439C27.2346 40.325 26.8307 39.35 26.8307 38.3333C26.8307 37.3167 27.2346 36.3416 27.9535 35.6228C28.6724 34.9039 29.6474 34.5 30.6641 34.5ZM30.6641 36.4167C30.1557 36.4167 29.6682 36.6186 29.3088 36.978C28.9493 37.3375 28.7474 37.825 28.7474 38.3333C28.7474 38.8417 28.9493 39.3292 29.3088 39.6886C29.6682 40.0481 30.1557 40.25 30.6641 40.25C31.1724 40.25 31.6599 40.0481 32.0194 39.6886C32.3788 39.3292 32.5807 38.8417 32.5807 38.3333C32.5807 37.825 32.3788 37.3375 32.0194 36.978C31.6599 36.6186 31.1724 36.4167 30.6641 36.4167ZM13.4141 34.5C14.4307 34.5 15.4057 34.9039 16.1246 35.6228C16.8435 36.3416 17.2474 37.3167 17.2474 38.3333C17.2474 39.35 16.8435 40.325 16.1246 41.0439C15.4057 41.7628 14.4307 42.1667 13.4141 42.1667C12.3974 42.1667 11.4224 41.7628 10.7035 41.0439C9.9846 40.325 9.58073 39.35 9.58073 38.3333C9.58073 37.3167 9.9846 36.3416 10.7035 35.6228C11.4224 34.9039 12.3974 34.5 13.4141 34.5ZM13.4141 36.4167C12.9057 36.4167 12.4182 36.6186 12.0588 36.978C11.6993 37.3375 11.4974 37.825 11.4974 38.3333C11.4974 38.8417 11.6993 39.3292 12.0588 39.6886C12.4182 40.0481 12.9057 40.25 13.4141 40.25C13.9224 40.25 14.4099 40.0481 14.7694 39.6886C15.1288 39.3292 15.3307 38.8417 15.3307 38.3333C15.3307 37.825 15.1288 37.3375 14.7694 36.978C14.4099 36.6186 13.9224 36.4167 13.4141 36.4167ZM34.4974 11.5H8.18156L13.0691 23H28.7474C29.3799 23 29.9357 22.6933 30.2807 22.2333L36.0307 14.5667C36.2799 14.2408 36.4141 13.8383 36.4141 13.4167C36.4141 12.9083 36.2121 12.4208 35.8527 12.0614C35.4932 11.7019 35.0057 11.5 34.4974 11.5ZM28.7474 24.9167H13.1649L11.6891 27.9067L11.4974 28.75C11.4974 29.2583 11.6993 29.7458 12.0588 30.1053C12.4182 30.4647 12.9057 30.6667 13.4141 30.6667H34.4974V32.5833H13.4141C12.3974 32.5833 11.4224 32.1795 10.7035 31.4606C9.9846 30.7417 9.58073 29.7667 9.58073 28.75C9.58016 28.0997 9.74505 27.4599 10.0599 26.8908L11.4399 24.0733L4.4824 7.66667H1.91406V5.75H5.7474L7.37656 9.58333H34.4974C35.5141 9.58333 36.4891 9.9872 37.208 10.7061C37.9269 11.425 38.3307 12.4 38.3307 13.4167C38.3307 14.375 38.0049 15.18 37.4682 15.8317L31.8907 23.2875C31.2007 24.265 30.0507 24.9167 28.7474 24.9167Z" fill="white"/>
</svg>
