<svg width="47" height="46" viewBox="0 0 47 46" fill="none" xmlns="http://www.w3.org/2000/svg">
<path d="M31.1387 34.5C32.1553 34.5 33.1304 34.9039 33.8492 35.6228C34.5681 36.3416 34.972 37.3167 34.972 38.3333C34.972 39.35 34.5681 40.325 33.8492 41.0439C33.1304 41.7628 32.1553 42.1667 31.1387 42.1667C30.122 42.1667 29.147 41.7628 28.4281 41.0439C27.7092 40.325 27.3053 39.35 27.3053 38.3333C27.3053 37.3167 27.7092 36.3416 28.4281 35.6228C29.147 34.9039 30.122 34.5 31.1387 34.5ZM31.1387 36.4167C30.6303 36.4167 30.1428 36.6186 29.7834 36.978C29.4239 37.3375 29.222 37.825 29.222 38.3333C29.222 38.8417 29.4239 39.3292 29.7834 39.6886C30.1428 40.0481 30.6303 40.25 31.1387 40.25C31.647 40.25 32.1345 40.0481 32.494 39.6886C32.8534 39.3292 33.0553 38.8417 33.0553 38.3333C33.0553 37.825 32.8534 37.3375 32.494 36.978C32.1345 36.6186 31.647 36.4167 31.1387 36.4167ZM13.8887 34.5C14.9053 34.5 15.8804 34.9039 16.5992 35.6228C17.3181 36.3416 17.722 37.3167 17.722 38.3333C17.722 39.35 17.3181 40.325 16.5992 41.0439C15.8804 41.7628 14.9053 42.1667 13.8887 42.1667C12.872 42.1667 11.897 41.7628 11.1781 41.0439C10.4592 40.325 10.0553 39.35 10.0553 38.3333C10.0553 37.3167 10.4592 36.3416 11.1781 35.6228C11.897 34.9039 12.872 34.5 13.8887 34.5ZM13.8887 36.4167C13.3803 36.4167 12.8928 36.6186 12.5334 36.978C12.1739 37.3375 11.972 37.825 11.972 38.3333C11.972 38.8417 12.1739 39.3292 12.5334 39.6886C12.8928 40.0481 13.3803 40.25 13.8887 40.25C14.397 40.25 14.8845 40.0481 15.244 39.6886C15.6034 39.3292 15.8053 38.8417 15.8053 38.3333C15.8053 37.825 15.6034 37.3375 15.244 36.978C14.8845 36.6186 14.397 36.4167 13.8887 36.4167ZM34.972 11.5H8.65617L13.5437 23H29.222C29.8545 23 30.4103 22.6933 30.7553 22.2333L36.5053 14.5667C36.7545 14.2408 36.8887 13.8383 36.8887 13.4167C36.8887 12.9083 36.6867 12.4208 36.3273 12.0614C35.9678 11.7019 35.4803 11.5 34.972 11.5ZM29.222 24.9167H13.6395L12.1637 27.9067L11.972 28.75C11.972 29.2583 12.1739 29.7458 12.5334 30.1053C12.8928 30.4647 13.3803 30.6667 13.8887 30.6667H34.972V32.5833H13.8887C12.872 32.5833 11.897 32.1795 11.1781 31.4606C10.4592 30.7417 10.0553 29.7667 10.0553 28.75C10.0548 28.0997 10.2197 27.4599 10.5345 26.8908L11.9145 24.0733L4.95701 7.66667H2.38867V5.75H6.22201L7.85117 9.58333H34.972C35.9887 9.58333 36.9637 9.9872 37.6826 10.7061C38.4015 11.425 38.8053 12.4 38.8053 13.4167C38.8053 14.375 38.4795 15.18 37.9428 15.8317L32.3653 23.2875C31.6753 24.265 30.5253 24.9167 29.222 24.9167Z" fill="white"/>
</svg>
