<svg width="18" height="18" viewBox="0 0 18 18" fill="none" xmlns="http://www.w3.org/2000/svg">
<g clip-path="url(#clip0_1_12385)">
<path d="M8.93754 5.44222C7.55572 5.44222 6.43164 4.30232 6.43164 2.90104C6.43164 1.49976 7.55572 0.359863 8.93754 0.359863C10.3194 0.359863 11.4434 1.49976 11.4434 2.90104C11.4434 4.30232 10.3194 5.44222 8.93754 5.44222Z" fill="white"/>
<path d="M2.86528 5.44222C1.48345 5.44222 0.359375 4.30232 0.359375 2.90104C0.359375 1.49976 1.48345 0.359863 2.86528 0.359863C4.24711 0.359863 5.37118 1.49976 5.37118 2.90104C5.37118 4.30232 4.24711 5.44222 2.86528 5.44222Z" fill="white"/>
<path d="M15.1348 5.44222C13.753 5.44222 12.6289 4.30232 12.6289 2.90104C12.6289 1.49976 13.753 0.359863 15.1348 0.359863C16.5166 0.359863 17.6407 1.49976 17.6407 2.90104C17.6407 4.30232 16.5166 5.44222 15.1348 5.44222Z" fill="white"/>
<path d="M8.93754 11.5521C7.55572 11.5521 6.43164 10.4122 6.43164 9.0109C6.43164 7.60963 7.55572 6.46973 8.93754 6.46973C10.3194 6.46973 11.4434 7.60963 11.4434 9.0109C11.4434 10.4122 10.3194 11.5521 8.93754 11.5521Z" fill="white"/>
<path d="M2.86528 11.5521C1.48345 11.5521 0.359375 10.4122 0.359375 9.0109C0.359375 7.60963 1.48345 6.46973 2.86528 6.46973C4.24711 6.46973 5.37118 7.60963 5.37118 9.0109C5.37118 10.4122 4.24711 11.5521 2.86528 11.5521Z" fill="white"/>
<path d="M15.1348 11.5521C13.753 11.5521 12.6289 10.4122 12.6289 9.0109C12.6289 7.60963 13.753 6.46973 15.1348 6.46973C16.5166 6.46973 17.6407 7.60963 17.6407 9.0109C17.6407 10.4122 16.5166 11.5521 15.1348 11.5521Z" fill="white"/>
<path d="M8.93754 17.64C7.55572 17.64 6.43164 16.5001 6.43164 15.0988C6.43164 13.6975 7.55572 12.5576 8.93754 12.5576C10.3194 12.5576 11.4434 13.6975 11.4434 15.0988C11.4434 16.5001 10.3194 17.64 8.93754 17.64Z" fill="white"/>
<path d="M2.86528 17.64C1.48345 17.64 0.359375 16.5001 0.359375 15.0988C0.359375 13.6975 1.48345 12.5576 2.86528 12.5576C4.24711 12.5576 5.37118 13.6975 5.37118 15.0988C5.37118 16.5001 4.24711 17.64 2.86528 17.64Z" fill="white"/>
<path d="M15.1348 17.64C13.753 17.64 12.6289 16.5001 12.6289 15.0988C12.6289 13.6975 13.753 12.5576 15.1348 12.5576C16.5166 12.5576 17.6407 13.6975 17.6407 15.0988C17.6407 16.5001 16.5166 17.64 15.1348 17.64Z" fill="white"/>
</g>
<defs>
<clipPath id="clip0_1_12385">
<rect width="17.28" height="17.28" fill="white" transform="translate(0.359375 0.359863)"/>
</clipPath>
</defs>
</svg>
