<svg width="18" height="17" viewBox="0 0 18 17" fill="none" xmlns="http://www.w3.org/2000/svg">
<g clip-path="url(#clip0_353_9198)">
<path d="M12.9394 16.8282C12.9394 16.8282 12.9987 16.8282 13.0326 16.8115C13.1174 16.7782 13.1682 16.6948 13.1682 16.6114V13.2264H16.8715C16.9901 13.2264 17.0918 13.1263 17.0918 13.0096V1.20359C17.0918 1.08687 16.9901 0.986816 16.8715 0.986816H1.01611C0.897472 0.986816 0.79578 1.08687 0.79578 1.20359V13.0012C0.79578 13.118 0.897472 13.218 1.01611 13.218H8.85481L12.7869 16.7615C12.7869 16.7615 12.8801 16.8199 12.9394 16.8199V16.8282ZM16.6511 12.7845H12.9394C12.8208 12.7845 12.7191 12.8845 12.7191 13.0012V16.1112L9.09209 12.8428C9.09209 12.8428 8.99887 12.7845 8.93955 12.7845H1.23644V1.42037H16.6511V12.7845Z" fill="black"/>
<path d="M12.9386 16.9119C12.981 16.9119 13.0234 16.9036 13.0573 16.8869C13.1675 16.8369 13.2437 16.7285 13.2437 16.6118V13.3101H16.8707C17.0402 13.3101 17.1758 13.1767 17.1758 13.01V1.20396C17.1758 1.03721 17.0402 0.903809 16.8707 0.903809H1.01535C0.845863 0.903809 0.710276 1.03721 0.710276 1.20396V13.0016C0.710276 13.1684 0.845863 13.3018 1.01535 13.3018H8.82015L12.7268 16.8286C12.7861 16.8786 12.8539 16.9036 12.9302 16.9036L12.9386 16.9119ZM16.8707 1.07056C16.947 1.07056 17.0063 1.12892 17.0063 1.20396V13.0016C17.0063 13.0767 16.947 13.135 16.8707 13.135H13.1675C13.1251 13.135 13.0827 13.1684 13.0827 13.2184V16.6034C13.0827 16.6618 13.0488 16.7035 12.998 16.7285C12.9471 16.7452 12.8878 16.7368 12.8454 16.7035L8.91337 13.16C8.91337 13.16 8.87947 13.135 8.85405 13.135H1.01535C0.939081 13.135 0.879761 13.0767 0.879761 13.0016V1.20396C0.879761 1.12892 0.939081 1.07056 1.01535 1.07056H16.8707ZM12.7183 16.1949C12.7183 16.1949 12.7437 16.1949 12.7522 16.1949C12.7861 16.1782 12.8031 16.1532 12.8031 16.1199V13.01C12.8031 12.9349 12.8624 12.8766 12.9386 12.8766H16.6504C16.6927 12.8766 16.7351 12.8432 16.7351 12.7932V1.42074C16.7351 1.37905 16.7012 1.33736 16.6504 1.33736H1.24415C1.20178 1.33736 1.15941 1.37071 1.15941 1.42074V12.7848C1.15941 12.8265 1.19331 12.8682 1.24415 12.8682H8.94727C8.94727 12.8682 9.01506 12.8849 9.04048 12.9016L12.6675 16.1699C12.6675 16.1699 12.7014 16.1949 12.7268 16.1949H12.7183ZM16.5656 12.7015H12.9386C12.7692 12.7015 12.6336 12.8349 12.6336 13.0016V15.9198L9.15065 12.7765C9.09133 12.7265 9.02353 12.7015 8.94727 12.7015H1.3289V1.50411H16.5656V12.7015Z" fill="black"/>
</g>
<defs>
<clipPath id="clip0_353_9198">
<rect width="16.4655" height="16.0081" fill="white" transform="matrix(-1 0 0 1 17.1738 0.903809)"/>
</clipPath>
</defs>
</svg>
