<svg width="36" height="36" viewBox="0 0 36 36" fill="none" xmlns="http://www.w3.org/2000/svg">
<g clip-path="url(#clip0_421_26701)">
<path d="M4.9704 10.7991C5.15504 10.7991 5.3229 10.8628 5.45718 11.0062L17.6433 23.654L30.5344 10.9902C30.7862 10.7354 31.2058 10.7354 31.4744 10.9902C31.7429 11.2292 31.7429 11.6274 31.4744 11.8823L18.0965 25.0079C17.979 25.1354 17.7944 25.1991 17.6265 25.1991C17.4419 25.1991 17.274 25.1194 17.1565 24.992L4.50042 11.8345C4.24864 11.5796 4.26542 11.1814 4.55077 10.9425C4.68506 10.831 4.83612 10.7832 5.00397 10.7832L4.9704 10.7991Z" fill="black"/>
</g>
<defs>
<clipPath id="clip0_421_26701">
<rect width="27.36" height="14.4" fill="white" transform="translate(31.6758 25.2002) rotate(-180)"/>
</clipPath>
</defs>
</svg>
