<svg width="42" height="32" viewBox="0 0 42 32" fill="none" xmlns="http://www.w3.org/2000/svg">
<path fill-rule="evenodd" clip-rule="evenodd" d="M15.0612 19.1341L21.0042 23.1717L26.733 19.2447L39.5745 31.8331C39.2357 31.943 38.8773 31.9987 38.4993 32.0001H3.5007C3.0387 32.0001 2.5977 31.9103 2.1924 31.7497L15.0612 19.1341ZM42 8.7888V28.5217C42 29.0371 41.8866 29.5254 41.685 29.9656L29.0976 17.6255L42 8.7888ZM0 8.89939L12.6882 17.5212L0.2226 29.7445C0.0765718 29.3531 0.00121588 28.9391 0 28.5217V8.89939ZM38.4993 0.701172C40.4313 0.701172 42 2.25777 42 4.17952V5.40226L20.9958 19.7893L0 5.5212V4.17952C0 2.25986 1.5666 0.701172 3.5007 0.701172H38.4993Z" fill="white"/>
</svg>
