<svg width="229" height="36" viewBox="0 0 229 36" fill="none" xmlns="http://www.w3.org/2000/svg">
<g clip-path="url(#clip0_274_76)">
<path d="M152.897 18.8725C153.3 18.9961 153.627 19.0792 153.94 19.1933C155.22 19.6662 155.983 20.4503 155.98 21.8333C155.973 24.5803 156.044 27.3273 156.08 30.0743C156.1 31.6046 156.118 33.1373 156.126 34.6676C156.126 35.0621 156.202 35.4684 156.041 35.8534C155.733 35.9745 155.593 35.744 155.442 35.5991C153.634 33.8454 151.849 32.0703 150.021 30.3333C149.503 29.8438 149.297 29.3091 149.286 28.6485C149.261 26.9827 149.207 25.317 149.161 23.6512C149.154 23.3375 149.146 23.0215 149.116 22.7078C149.09 22.4559 148.924 22.3015 148.646 22.2943C148.164 22.2801 147.68 22.2729 147.198 22.2706C145.168 22.2587 143.138 22.2397 141.106 22.2421C140.453 22.2421 140.364 22.3276 140.367 22.9621C140.374 24.6278 140.407 26.2936 140.43 27.9617C140.435 28.3681 140.44 28.7721 140.433 29.1784C140.428 29.435 140.282 29.5966 140.002 29.6204C139.762 29.6394 139.52 29.6465 139.278 29.6465C137.584 29.6465 135.894 29.6537 134.201 29.6465C133.043 29.6418 133.035 29.6323 133.03 28.4988C133.023 26.3815 133.02 24.2643 133.03 22.147C133.048 17.4182 133.076 12.6894 133.099 7.96065C133.099 7.7349 133.099 7.50915 133.114 7.28578C133.237 5.56061 134.234 4.34871 136.011 3.78316C136.886 3.50513 137.796 3.36018 138.717 3.3578C143.019 3.34354 147.323 3.31265 151.625 3.36255C154.588 3.3982 156.148 4.87387 156.284 7.65411C156.34 8.82323 156.294 9.99711 156.296 11.1662C156.296 12.5183 156.25 13.8704 156.309 15.2202C156.37 16.6744 155.707 17.6178 154.269 18.1501C153.833 18.3117 153.338 18.402 152.902 18.8749L152.897 18.8725ZM145.296 15.4435C146.453 15.4435 147.614 15.4554 148.771 15.4412C149.243 15.4364 149.388 15.3081 149.388 14.8804C149.394 12.7678 149.383 10.653 149.365 8.54046C149.363 8.12461 149.21 7.98916 148.733 7.98678C146.415 7.9749 144.1 7.97253 141.782 7.98441C141.165 7.98678 141.07 8.09134 141.07 8.74719C141.07 10.6815 141.093 12.6134 141.109 14.5477C141.109 14.6831 141.114 14.8186 141.124 14.9516C141.149 15.2677 141.33 15.4435 141.675 15.4435C142.881 15.4459 144.087 15.4435 145.296 15.4435Z" fill="#525252"/>
<path d="M180.631 21.8666C180.631 26.1011 180.631 30.3332 180.631 34.5678C180.631 34.929 180.628 35.2878 180.608 35.6466C180.603 35.7226 180.544 35.8224 180.478 35.8628C180.338 35.9436 180.215 35.8723 180.113 35.7678C180.016 35.668 179.914 35.5705 179.82 35.4707C178.198 33.7408 176.589 32.0014 174.952 30.2833C174.506 29.8176 174.317 29.3281 174.327 28.7031C174.358 26.8568 174.34 25.0104 174.337 23.164C174.337 22.848 174.345 22.5319 174.327 22.2183C174.299 21.7311 174.169 21.6218 173.608 21.5909C173.463 21.5814 173.317 21.5838 173.172 21.5862C170.706 21.5981 168.243 21.6123 165.777 21.6266C165.586 21.6266 165.392 21.6408 165.201 21.667C164.992 21.6979 164.854 21.8262 164.839 22.0234C164.816 22.3371 164.808 22.6531 164.808 22.9668C164.798 24.6777 164.793 26.3886 164.785 28.1019C164.785 28.418 164.785 28.7316 164.772 29.0477C164.76 29.378 164.545 29.5182 164.211 29.5277C164.114 29.5301 164.018 29.5348 163.921 29.5348C162.373 29.5348 160.827 29.5443 159.28 29.5301C158.586 29.5253 158.51 29.4445 158.479 28.8481C158.466 28.5772 158.474 28.3087 158.474 28.0378C158.474 21.9117 158.479 15.7881 158.469 9.66203C158.469 8.80182 158.553 7.95349 158.711 7.10991C159.068 5.2184 160.289 4.07304 162.261 3.60966C162.962 3.44332 163.681 3.36728 164.413 3.37204C167.845 3.38392 171.277 3.36728 174.71 3.38629C175.383 3.38867 176.064 3.45283 176.724 3.56214C178.859 3.91858 180.042 5.0283 180.442 7.01724C180.595 7.77052 180.633 8.53568 180.631 9.30322C180.623 13.4926 180.628 17.6796 180.628 21.869L180.631 21.8666ZM169.5 9.02757V9.03232C168.149 9.03232 166.797 9.02282 165.446 9.03707C164.971 9.04183 164.831 9.17014 164.823 9.5955C164.805 10.4937 164.811 11.3943 164.811 12.2949C164.811 13.2383 164.816 14.1841 164.826 15.1275C164.828 15.3793 164.976 15.5504 165.252 15.5861C165.489 15.617 165.731 15.6289 165.971 15.6289C167.468 15.6336 168.965 15.6289 170.461 15.6289C171.379 15.6289 172.297 15.6384 173.213 15.6241C174.001 15.6122 174.085 15.5481 174.085 14.8803C174.08 13.1718 174.062 11.4609 174.026 9.75233C174.014 9.1345 173.901 9.03707 173.266 9.02994C172.012 9.01569 170.755 9.02519 169.5 9.02519V9.02757Z" fill="#525252"/>
<path d="M29.5354 35.77C29.1351 35.808 29.0356 35.6393 28.9081 35.5158C27.1078 33.7549 25.3203 31.987 23.5047 30.2404C23.0712 29.8246 22.8927 29.3897 22.8978 28.8052C22.9182 26.1936 22.8978 23.5821 22.8774 20.9706C22.8748 20.531 22.987 20.0724 22.704 19.5852C22.3036 19.5852 21.8701 19.5852 21.4366 19.5852C19.2615 19.5852 17.0863 19.5876 14.9137 19.5852C14.0824 19.5852 13.9473 19.6327 13.9498 20.5215C13.9575 23.0427 13.9524 25.5639 13.9498 28.0852C13.9498 28.4464 13.9422 28.8052 13.9498 29.1664C13.9549 29.5157 13.7484 29.6297 13.4067 29.6297C11.4738 29.6274 9.54085 29.6274 7.60795 29.6274C7.32745 29.6274 7.1464 29.5276 7.1413 29.2448C7.13365 28.8836 7.1311 28.5248 7.1311 28.1636C7.1311 20.4193 7.12855 12.675 7.1362 4.93074C7.1362 4.44598 7.0087 3.94221 7.3096 3.39567C7.90375 3.39567 8.5285 3.39091 9.1507 3.39567C10.6476 3.4123 12.1444 3.43131 13.6413 3.45745C14.1411 3.46696 14.2252 3.54537 14.2354 4.00875C14.2635 5.26817 14.2813 6.5276 14.2992 7.7894C14.3221 9.36487 14.3349 10.9403 14.3604 12.5158C14.368 13.0101 14.4343 13.0766 14.9239 13.0861C17.6269 13.1289 20.3325 13.1669 22.9998 13.2049C23.3185 12.858 23.2267 12.4873 23.2293 12.1356C23.2369 9.65953 23.2318 7.18345 23.2344 4.70737C23.2344 4.3937 23.242 4.07766 23.265 3.76399C23.2803 3.55963 23.4307 3.43844 23.6424 3.42656C24.0274 3.4028 24.4125 3.39804 24.8001 3.39804C26.1057 3.39567 27.4087 3.38854 28.7143 3.4028C29.3697 3.40992 29.4258 3.48359 29.4487 4.12994C29.4538 4.31053 29.4487 4.49113 29.4487 4.66935C29.4589 8.99179 29.4717 13.3142 29.4818 17.6367C29.4972 23.4894 29.515 29.3422 29.5329 35.195C29.5329 35.3732 29.5329 35.5514 29.5329 35.7677L29.5354 35.77Z" fill="#B9B9B9"/>
<path d="M31.8014 16.3892C31.8014 13.5971 31.8065 10.805 31.8014 8.01283C31.8014 7.05994 31.9136 6.13557 32.3191 5.24209C32.7271 4.34386 33.4003 3.79019 34.4101 3.53593C35.1215 3.35771 35.8355 3.30781 36.5623 3.31256C40.043 3.32919 43.5238 3.34583 47.002 3.36009C47.6777 3.36246 48.356 3.35296 49.0318 3.3387C49.6157 3.32682 50.1844 3.40048 50.753 3.53118C51.6608 3.74267 52.3034 4.23693 52.6936 5.01873C53.1271 5.88844 53.3413 6.80568 53.3387 7.7657C53.3362 9.07265 53.3387 10.3772 53.3387 11.6842C53.3464 15.8284 53.3566 19.9702 53.3617 24.1145C53.3617 24.8796 53.3285 25.6353 53.1475 26.3933C52.7497 28.0543 51.4288 29.2662 49.2664 29.5252C48.8839 29.5704 48.4937 29.5633 48.1087 29.5633C44.5795 29.5656 41.0503 29.5585 37.5211 29.568C36.3991 29.5704 35.3204 29.4136 34.2596 29.0524C32.8265 28.5628 32.0998 27.5933 31.8856 26.246C31.8014 25.7137 31.7785 25.1695 31.7759 24.6301C31.7657 21.8831 31.7708 19.1362 31.7708 16.3892C31.781 16.3892 31.7938 16.3892 31.804 16.3892H31.8014ZM37.6639 16.0137C37.6639 16.0137 37.6792 16.0137 37.6894 16.0137C37.6894 18.0407 37.6894 20.0653 37.6894 22.0923C37.6894 22.318 37.6894 22.5414 37.6945 22.7671C37.7021 23.1045 37.9163 23.2376 38.2529 23.24C38.3983 23.24 38.5436 23.2424 38.689 23.2424C41.2976 23.2424 43.9088 23.2424 46.5175 23.2424C46.7087 23.2424 46.9025 23.2329 47.0938 23.2139C47.3131 23.1901 47.4304 23.0523 47.4482 22.8574C47.4686 22.634 47.4737 22.4083 47.4737 22.1849C47.4737 18.0431 47.4737 13.9012 47.4737 9.75939C47.4737 9.53365 47.4686 9.31028 47.4559 9.08453C47.4457 8.88017 47.3182 8.74948 47.104 8.73284C46.8158 8.70908 46.5251 8.70433 46.237 8.70433C43.8221 8.70433 41.4047 8.70433 38.9899 8.70433C38.6992 8.70433 38.411 8.70433 38.1203 8.71621C37.8373 8.72571 37.6843 8.86591 37.6766 9.13206C37.669 9.3578 37.6664 9.58117 37.6664 9.80692C37.6664 11.879 37.6664 13.9488 37.6664 16.0209L37.6639 16.0137Z" fill="#B9B9B9"/>
<path d="M88.107 35.8864C87.8291 35.8864 87.6965 35.6844 87.5358 35.5371C85.6463 33.7929 83.7746 32.0344 81.8646 30.3116C81.3801 29.872 81.1583 29.4253 81.1583 28.7861C81.1532 26.2648 81.092 23.7436 81.0486 21.2224C81.0435 20.9515 81.0486 20.6806 81.0206 20.4121C80.9594 19.7966 81.0945 19.5566 80.1255 19.5234C79.0061 19.4853 77.9453 19.1812 76.9125 18.7725C75.6324 18.2663 74.7705 17.4013 74.286 16.2132C73.9086 15.2865 73.6434 14.3288 73.6485 13.3189C73.6638 10.4365 73.6664 7.55406 73.6766 4.67164C73.6766 4.40075 73.6817 4.12985 73.6995 3.86133C73.7174 3.60707 73.8678 3.44073 74.1483 3.4241C74.4849 3.40509 74.8241 3.40271 75.1607 3.40271C76.8513 3.40271 78.542 3.40271 80.1689 3.40271C80.4876 3.73064 80.4137 4.05619 80.4137 4.3651C80.4188 6.75326 80.4137 9.13904 80.4162 11.5272C80.4162 11.8884 80.4162 12.2472 80.4264 12.6084C80.4315 12.865 80.5692 13.0195 80.8548 13.0385C80.9517 13.0456 81.0486 13.048 81.1455 13.048C83.7567 13.048 86.3679 13.0528 88.9791 13.0456C89.5962 13.0456 89.6294 13.0124 89.6319 12.4135C89.6396 9.79964 89.6268 7.18812 89.6396 4.57421C89.6472 3.19122 89.4356 3.51915 90.7182 2.79676C92.4114 1.84387 94.125 0.924257 95.8029 0.00463867C96.1421 0.135334 96.0885 0.377714 96.0885 0.589202C96.0885 4.86887 96.0911 9.14854 96.0885 13.4282C96.0885 13.787 96.0656 14.1506 96.0146 14.507C95.7596 16.2797 94.8161 17.6176 93.105 18.4564C92.0646 18.9673 90.9452 19.1954 89.7849 19.3475C87.9872 19.5828 88.2702 19.2572 88.26 20.9135C88.2371 25.5068 88.2345 30.1025 88.2167 34.6959C88.2167 35.0927 88.3161 35.5062 88.1096 35.8888L88.107 35.8864Z" fill="#B9B9B9"/>
<path d="M189.17 35.9839C188.999 35.7677 188.844 35.5395 188.652 35.3399C187.013 33.6243 185.381 31.9038 183.716 30.2119C183.259 29.7486 183.076 29.2662 183.078 28.6388C183.096 21.8403 183.088 15.0418 183.091 8.24328C183.091 7.92961 183.099 7.61119 183.144 7.2999C183.45 5.24205 184.733 3.97074 186.926 3.5644C187.444 3.46697 187.977 3.38618 188.505 3.3838C192.804 3.36954 197.106 3.3743 201.408 3.3743C201.553 3.3743 201.698 3.37192 201.841 3.3838C202.28 3.41707 202.425 3.55014 202.428 3.98975C202.428 5.07096 202.41 6.14978 202.397 7.23099C202.392 7.7704 202.387 8.30982 202.369 8.85161C202.361 9.11775 202.178 9.25557 201.907 9.26746C201.522 9.28409 201.135 9.27696 200.747 9.27696C197.46 9.26983 194.176 9.25795 190.889 9.25795C189.593 9.25795 189.588 9.26983 189.578 10.4271C189.57 11.1922 189.581 11.9574 189.596 12.7226C189.604 13.0315 189.78 13.2311 190.126 13.2453C190.511 13.262 190.899 13.2667 191.284 13.2667C193.12 13.2715 194.956 13.2667 196.792 13.2762C197.266 13.2786 197.394 13.3974 197.399 13.8442C197.412 15.3293 197.414 16.8169 197.399 18.302C197.394 18.8343 197.279 18.9389 196.721 18.9413C194.982 18.9508 193.242 18.946 191.501 18.946C191.065 18.946 190.631 18.9389 190.195 18.9579C189.749 18.9769 189.598 19.1124 189.588 19.5377C189.56 20.5738 189.54 21.6074 189.537 22.6435C189.532 26.6048 189.537 30.5684 189.532 34.5296C189.532 34.9716 189.507 35.4136 189.494 35.8532C189.384 35.896 189.277 35.9388 189.168 35.9792L189.17 35.9839Z" fill="#525252"/>
<path d="M211.157 36.1597C210.537 35.5395 210.17 35.1854 209.818 34.8195C208.334 33.2773 206.868 31.7208 205.363 30.1952C204.94 29.7651 204.754 29.3232 204.772 28.7433C204.805 27.6645 204.782 26.5809 204.782 25.5021C204.772 19.8276 204.759 14.1554 204.754 8.48085C204.754 8.07689 204.782 7.67054 204.83 7.26895C205.057 5.41308 206.261 4.10138 208.199 3.64038C208.803 3.49781 209.438 3.39325 210.058 3.3885C214.408 3.36711 218.756 3.37662 223.106 3.37662C223.252 3.37662 223.394 3.38612 223.54 3.398C223.825 3.41939 223.989 3.58098 223.994 3.83286C224.011 4.82377 224.042 5.81467 224.001 6.8032C223.968 7.5945 224.213 8.40957 223.82 9.17948C223.014 9.37196 222.193 9.2674 221.38 9.26978C218.529 9.27928 215.676 9.26027 212.825 9.25552C212.437 9.25552 212.052 9.26027 211.664 9.27215C211.381 9.28166 211.218 9.43849 211.216 9.69275C211.205 10.7288 211.203 11.7625 211.211 12.7985C211.211 13.0457 211.358 13.2263 211.649 13.2405C212.034 13.2572 212.422 13.2643 212.807 13.2643C214.594 13.2667 216.384 13.2595 218.172 13.2714C218.965 13.2762 219.039 13.3403 219.044 14.0057C219.057 15.4006 219.057 16.7978 219.044 18.1927C219.036 18.8747 218.965 18.9365 218.175 18.9412C216.29 18.9531 214.406 18.946 212.519 18.946C211.121 18.946 211.19 18.9079 211.19 20.2101C211.19 24.9841 211.19 29.758 211.19 34.5296C211.19 34.9644 211.17 35.3993 211.152 36.1573L211.157 36.1597Z" fill="#525252"/>
<path d="M122.687 35.6725C122.269 35.6226 122.09 35.3303 121.866 35.1093C120.265 33.5457 118.694 31.956 117.064 30.4186C116.511 29.8958 116.294 29.3587 116.299 28.6316C116.325 23.228 116.315 17.8243 116.315 12.4207C116.315 11.7909 116.322 11.1589 116.302 10.5291C116.289 10.1276 116.126 9.9731 115.669 9.97072C113.93 9.95646 112.189 9.96597 110.45 9.95409C108.134 9.93745 108.45 10.1893 108.43 8.10297C108.417 6.75325 108.42 5.40115 108.435 4.05142C108.443 3.45736 108.552 3.37419 109.21 3.35042C109.501 3.34092 109.789 3.34567 110.08 3.34567C116.46 3.34567 122.84 3.34567 129.218 3.34567C129.603 3.34567 129.99 3.3528 130.375 3.36706C130.661 3.37894 130.811 3.54528 130.829 3.79479C130.852 4.10845 130.85 4.4245 130.847 4.74054C130.842 6.13542 130.837 7.53267 130.824 8.92754C130.814 9.93745 130.806 9.94696 129.661 9.95171C128.019 9.96122 126.374 9.95171 124.732 9.95647C122.605 9.96359 122.822 9.78775 122.822 11.8028C122.815 19.2786 122.822 26.752 122.812 34.2277C122.812 34.7077 122.932 35.2091 122.687 35.6725Z" fill="#525252"/>
<path d="M62.0344 0.0761719C62.195 0.872224 62.1313 1.49956 62.1287 2.12214C62.1058 7.70401 62.0752 13.2859 62.0446 18.8677C62.0369 20.2626 62.0242 21.6575 62.0267 23.0547C62.0267 23.5205 62.1185 23.6084 62.6107 23.6084C65.1224 23.6155 67.6367 23.6132 70.1485 23.6155C70.5361 23.6155 70.9211 23.6155 71.3087 23.6203C71.6683 23.6274 71.8213 23.8223 71.8213 24.1383C71.8213 25.8492 71.8264 27.5602 71.8187 29.2711C71.8187 29.6228 71.653 29.7701 71.3087 29.7843C71.1149 29.7915 70.9237 29.7725 70.7299 29.7725C67.1548 29.7725 63.5797 29.7725 60.0046 29.7843C59.3212 29.7843 58.6531 29.7344 58.0028 29.5396C56.9114 29.2117 56.1949 28.5534 55.9042 27.496C55.7461 26.9233 55.6772 26.3483 55.6798 25.7613C55.6925 18.604 55.7078 11.4466 55.6951 4.28931C55.6951 3.66672 55.9042 3.31266 56.4856 3.01562C58.3063 2.08888 60.0964 1.10985 62.0344 0.0785482V0.0761719Z" fill="#B9B9B9"/>
</g>
<defs>
<clipPath id="clip0_274_76">
<rect width="229" height="36" fill="white"/>
</clipPath>
</defs>
</svg>
