<svg width="46" height="46" viewBox="0 0 46 46" fill="none" xmlns="http://www.w3.org/2000/svg">
<path d="M8.12927 23.4792C7.37144 22.7264 6.77101 21.8302 6.36297 20.8431C5.95493 19.8559 5.74744 18.7973 5.7526 17.7292C5.7526 15.5688 6.61082 13.4968 8.13846 11.9692C9.6661 10.4415 11.738 9.58333 13.8984 9.58333C16.9268 9.58333 19.5718 11.2317 20.9709 13.685H23.1176C23.8289 12.4374 24.8581 11.4005 26.1005 10.68C27.3428 9.9595 28.7539 9.5811 30.1901 9.58333C32.3505 9.58333 34.4224 10.4415 35.9501 11.9692C37.4777 13.4968 38.3359 15.5688 38.3359 17.7292C38.3359 19.9717 37.3776 22.0417 35.9593 23.4792L22.0443 37.375L8.12927 23.4792ZM37.3009 24.84C39.1218 23 40.2526 20.5083 40.2526 17.7292C40.2526 15.0604 39.1925 12.501 37.3054 10.6139C35.4183 8.72681 32.8588 7.66666 30.1901 7.66666C26.8359 7.66666 23.8651 9.29583 22.0443 11.8258C21.1149 10.5349 19.8911 9.48427 18.4744 8.76094C17.0578 8.03761 15.4891 7.66248 13.8984 7.66666C11.2297 7.66666 8.67026 8.72681 6.78318 10.6139C4.89609 12.501 3.83594 15.0604 3.83594 17.7292C3.83594 20.5083 4.96677 23 6.7876 24.84L22.0443 40.0967L37.3009 24.84Z" fill="white"/>
</svg>
