<svg width="229" height="36" viewBox="0 0 229 36" fill="none" xmlns="http://www.w3.org/2000/svg">
<g clip-path="url(#clip0_159_15154)">
<path d="M152.895 18.8725C153.298 18.9961 153.625 19.0792 153.938 19.1933C155.218 19.6662 155.981 20.4503 155.978 21.8333C155.971 24.5803 156.042 27.3273 156.078 30.0743C156.098 31.6046 156.116 33.1373 156.124 34.6676C156.124 35.0621 156.2 35.4684 156.039 35.8534C155.731 35.9745 155.591 35.744 155.44 35.5991C153.632 33.8454 151.847 32.0703 150.019 30.3333C149.501 29.8438 149.295 29.3091 149.284 28.6485C149.259 26.9827 149.205 25.317 149.16 23.6512C149.152 23.3375 149.144 23.0215 149.114 22.7078C149.088 22.4559 148.922 22.3015 148.644 22.2943C148.162 22.2801 147.678 22.2729 147.196 22.2706C145.166 22.2587 143.136 22.2397 141.104 22.2421C140.451 22.2421 140.362 22.3276 140.365 22.9621C140.372 24.6278 140.405 26.2936 140.428 27.9617C140.433 28.3681 140.439 28.7721 140.431 29.1784C140.426 29.435 140.28 29.5966 140 29.6204C139.76 29.6394 139.518 29.6465 139.276 29.6465C137.583 29.6465 135.892 29.6537 134.199 29.6465C133.041 29.6418 133.033 29.6323 133.028 28.4988C133.021 26.3815 133.018 24.2643 133.028 22.147C133.046 17.4182 133.074 12.6894 133.097 7.96065C133.097 7.7349 133.097 7.50915 133.112 7.28578C133.235 5.56061 134.232 4.34871 136.009 3.78316C136.884 3.50513 137.794 3.36018 138.715 3.3578C143.017 3.34354 147.321 3.31265 151.623 3.36255C154.586 3.3982 156.147 4.87387 156.282 7.65411C156.338 8.82323 156.292 9.99711 156.294 11.1662C156.294 12.5183 156.249 13.8704 156.307 15.2202C156.368 16.6744 155.705 17.6178 154.267 18.1501C153.831 18.3117 153.336 18.402 152.9 18.8749L152.895 18.8725ZM145.294 15.4435C146.451 15.4435 147.612 15.4554 148.769 15.4412C149.241 15.4364 149.386 15.3081 149.386 14.8804C149.392 12.7678 149.381 10.653 149.364 8.54046C149.361 8.12461 149.208 7.98916 148.731 7.98678C146.413 7.9749 144.098 7.97253 141.78 7.98441C141.163 7.98678 141.068 8.09134 141.068 8.74719C141.068 10.6815 141.091 12.6134 141.107 14.5477C141.107 14.6831 141.112 14.8186 141.122 14.9516C141.147 15.2677 141.328 15.4435 141.673 15.4435C142.879 15.4459 144.085 15.4435 145.294 15.4435Z" fill="#525252"/>
<path d="M180.629 21.8666C180.629 26.1011 180.629 30.3332 180.629 34.5678C180.629 34.929 180.626 35.2878 180.606 35.6466C180.601 35.7226 180.542 35.8224 180.476 35.8628C180.336 35.9436 180.213 35.8723 180.111 35.7678C180.014 35.668 179.912 35.5705 179.818 35.4707C178.196 33.7408 176.587 32.0014 174.95 30.2833C174.504 29.8176 174.315 29.3281 174.325 28.7031C174.356 26.8568 174.338 25.0104 174.335 23.164C174.335 22.848 174.343 22.5319 174.325 22.2183C174.297 21.7311 174.167 21.6218 173.606 21.5909C173.461 21.5814 173.315 21.5838 173.17 21.5862C170.704 21.5981 168.241 21.6123 165.775 21.6266C165.584 21.6266 165.39 21.6408 165.199 21.667C164.99 21.6979 164.852 21.8262 164.837 22.0234C164.814 22.3371 164.806 22.6531 164.806 22.9668C164.796 24.6777 164.791 26.3886 164.783 28.1019C164.783 28.418 164.783 28.7316 164.77 29.0477C164.758 29.378 164.543 29.5182 164.209 29.5277C164.113 29.5301 164.016 29.5348 163.919 29.5348C162.371 29.5348 160.826 29.5443 159.278 29.5301C158.584 29.5253 158.508 29.4445 158.477 28.8481C158.464 28.5772 158.472 28.3087 158.472 28.0378C158.472 21.9117 158.477 15.7881 158.467 9.66203C158.467 8.80182 158.551 7.95349 158.709 7.10991C159.066 5.2184 160.287 4.07304 162.259 3.60966C162.96 3.44332 163.679 3.36728 164.411 3.37204C167.843 3.38392 171.275 3.36728 174.708 3.38629C175.381 3.38867 176.062 3.45283 176.722 3.56214C178.857 3.91858 180.04 5.0283 180.44 7.01724C180.593 7.77052 180.631 8.53568 180.629 9.30322C180.621 13.4926 180.626 17.6796 180.626 21.869L180.629 21.8666ZM169.498 9.02757V9.03232C168.147 9.03232 166.795 9.02282 165.444 9.03707C164.969 9.04183 164.829 9.17014 164.821 9.5955C164.804 10.4937 164.809 11.3943 164.809 12.2949C164.809 13.2383 164.814 14.1841 164.824 15.1275C164.826 15.3793 164.974 15.5504 165.25 15.5861C165.487 15.617 165.729 15.6289 165.969 15.6289C167.466 15.6336 168.963 15.6289 170.459 15.6289C171.377 15.6289 172.295 15.6384 173.211 15.6241C173.999 15.6122 174.083 15.5481 174.083 14.8803C174.078 13.1718 174.06 11.4609 174.024 9.75233C174.012 9.1345 173.899 9.03707 173.264 9.02994C172.01 9.01569 170.753 9.02519 169.498 9.02519V9.02757Z" fill="#525252"/>
<path d="M29.5374 35.77C29.137 35.808 29.0376 35.6393 28.9101 35.5158C27.1098 33.7549 25.3222 31.987 23.5066 30.2404C23.0731 29.8246 22.8946 29.3897 22.8997 28.8052C22.9201 26.1936 22.8997 23.5821 22.8793 20.9706C22.8768 20.531 22.989 20.0724 22.7059 19.5852C22.3056 19.5852 21.8721 19.5852 21.4386 19.5852C19.2634 19.5852 17.0883 19.5876 14.9157 19.5852C14.0844 19.5852 13.9492 19.6327 13.9518 20.5215C13.9594 23.0427 13.9543 25.5639 13.9518 28.0852C13.9518 28.4464 13.9441 28.8052 13.9518 29.1664C13.9569 29.5157 13.7503 29.6297 13.4086 29.6297C11.4757 29.6274 9.54281 29.6274 7.60991 29.6274C7.32941 29.6274 7.14836 29.5276 7.14326 29.2448C7.13561 28.8836 7.13306 28.5248 7.13306 28.1636C7.13306 20.4193 7.13051 12.675 7.13816 4.93074C7.13816 4.44598 7.01066 3.94221 7.31156 3.39567C7.90571 3.39567 8.53046 3.39091 9.15266 3.39567C10.6495 3.4123 12.1464 3.43131 13.6432 3.45745C14.143 3.46696 14.2272 3.54537 14.2374 4.00875C14.2654 5.26817 14.2833 6.5276 14.3011 7.7894C14.3241 9.36487 14.3368 10.9403 14.3623 12.5158C14.37 13.0101 14.4363 13.0766 14.9259 13.0861C17.6289 13.1289 20.3344 13.1669 23.0017 13.2049C23.3205 12.858 23.2287 12.4873 23.2312 12.1356C23.2389 9.65953 23.2338 7.18345 23.2363 4.70737C23.2363 4.3937 23.244 4.07766 23.2669 3.76399C23.2822 3.55963 23.4327 3.43844 23.6443 3.42656C24.0294 3.4028 24.4144 3.39804 24.802 3.39804C26.1076 3.39567 27.4107 3.38854 28.7163 3.4028C29.3716 3.40992 29.4277 3.48359 29.4507 4.12994C29.4558 4.31053 29.4507 4.49113 29.4507 4.66935C29.4609 8.99179 29.4736 13.3142 29.4838 17.6367C29.4991 23.4894 29.517 29.3422 29.5348 35.195C29.5348 35.3732 29.5348 35.5514 29.5348 35.7677L29.5374 35.77Z" fill="#B9B9B9"/>
<path d="M31.8014 16.3892C31.8014 13.5971 31.8065 10.805 31.8014 8.01283C31.8014 7.05994 31.9136 6.13557 32.3191 5.24209C32.7271 4.34386 33.4003 3.79019 34.4101 3.53593C35.1215 3.35771 35.8355 3.30781 36.5623 3.31256C40.043 3.32919 43.5238 3.34583 47.002 3.36009C47.6777 3.36246 48.356 3.35296 49.0318 3.3387C49.6157 3.32682 50.1844 3.40048 50.753 3.53118C51.6608 3.74267 52.3034 4.23693 52.6936 5.01873C53.1271 5.88844 53.3413 6.80568 53.3387 7.7657C53.3362 9.07265 53.3387 10.3772 53.3387 11.6842C53.3464 15.8284 53.3566 19.9702 53.3617 24.1145C53.3617 24.8796 53.3285 25.6353 53.1475 26.3933C52.7497 28.0543 51.4288 29.2662 49.2664 29.5252C48.8839 29.5704 48.4937 29.5633 48.1087 29.5633C44.5795 29.5656 41.0503 29.5585 37.5211 29.568C36.3991 29.5704 35.3204 29.4136 34.2596 29.0524C32.8265 28.5628 32.0998 27.5933 31.8856 26.246C31.8014 25.7137 31.7785 25.1695 31.7759 24.6301C31.7657 21.8831 31.7708 19.1362 31.7708 16.3892C31.781 16.3892 31.7938 16.3892 31.804 16.3892H31.8014ZM37.6639 16.0137C37.6639 16.0137 37.6792 16.0137 37.6894 16.0137C37.6894 18.0407 37.6894 20.0653 37.6894 22.0923C37.6894 22.318 37.6894 22.5414 37.6945 22.7671C37.7021 23.1045 37.9163 23.2376 38.2529 23.24C38.3983 23.24 38.5436 23.2424 38.689 23.2424C41.2976 23.2424 43.9088 23.2424 46.5175 23.2424C46.7087 23.2424 46.9025 23.2329 47.0938 23.2139C47.3131 23.1901 47.4304 23.0523 47.4482 22.8574C47.4686 22.634 47.4737 22.4083 47.4737 22.1849C47.4737 18.0431 47.4737 13.9012 47.4737 9.75939C47.4737 9.53365 47.4686 9.31028 47.4559 9.08453C47.4457 8.88017 47.3182 8.74948 47.104 8.73284C46.8158 8.70908 46.5251 8.70433 46.237 8.70433C43.8221 8.70433 41.4047 8.70433 38.9899 8.70433C38.6992 8.70433 38.411 8.70433 38.1203 8.71621C37.8373 8.72571 37.6843 8.86591 37.6766 9.13206C37.669 9.3578 37.6664 9.58117 37.6664 9.80692C37.6664 11.879 37.6664 13.9488 37.6664 16.0209L37.6639 16.0137Z" fill="#B9B9B9"/>
<path d="M88.1051 35.8864C87.8271 35.8864 87.6945 35.6844 87.5339 35.5371C85.6443 33.7929 83.7726 32.0344 81.8627 30.3116C81.3782 29.872 81.1563 29.4253 81.1563 28.7861C81.1512 26.2648 81.09 23.7436 81.0467 21.2224C81.0416 20.9515 81.0467 20.6806 81.0186 20.4121C80.9574 19.7966 81.0926 19.5566 80.1236 19.5234C79.0041 19.4853 77.9433 19.1812 76.9106 18.7725C75.6305 18.2663 74.7686 17.4013 74.2841 16.2132C73.9067 15.2865 73.6415 14.3288 73.6466 13.3189C73.6619 10.4365 73.6644 7.55406 73.6746 4.67164C73.6746 4.40075 73.6797 4.12985 73.6976 3.86133C73.7154 3.60707 73.8659 3.44073 74.1464 3.4241C74.483 3.40509 74.8221 3.40271 75.1587 3.40271C76.8494 3.40271 78.54 3.40271 80.1669 3.40271C80.4857 3.73064 80.4117 4.05619 80.4117 4.3651C80.4168 6.75326 80.4117 9.13904 80.4143 11.5272C80.4143 11.8884 80.4143 12.2472 80.4245 12.6084C80.4296 12.865 80.5673 13.0195 80.8529 13.0385C80.9498 13.0456 81.0467 13.048 81.1436 13.048C83.7548 13.048 86.366 13.0528 88.9772 13.0456C89.5943 13.0456 89.6274 13.0124 89.63 12.4135C89.6376 9.79964 89.6249 7.18812 89.6376 4.57421C89.6453 3.19122 89.4336 3.51915 90.7163 2.79676C92.4095 1.84387 94.1231 0.924257 95.801 0.00463867C96.1401 0.135334 96.0866 0.377714 96.0866 0.589202C96.0866 4.86887 96.0891 9.14854 96.0866 13.4282C96.0866 13.787 96.0636 14.1506 96.0126 14.507C95.7576 16.2797 94.8141 17.6176 93.1031 18.4564C92.0627 18.9673 90.9432 19.1954 89.783 19.3475C87.9852 19.5828 88.2683 19.2572 88.2581 20.9135C88.2351 25.5068 88.2326 30.1025 88.2147 34.6959C88.2147 35.0927 88.3142 35.5062 88.1076 35.8888L88.1051 35.8864Z" fill="#B9B9B9"/>
<path d="M189.172 35.9839C189.001 35.7677 188.846 35.5395 188.654 35.3399C187.015 33.6243 185.383 31.9038 183.718 30.2119C183.261 29.7486 183.078 29.2662 183.08 28.6388C183.098 21.8403 183.09 15.0418 183.093 8.24328C183.093 7.92961 183.101 7.61119 183.146 7.2999C183.452 5.24205 184.735 3.97074 186.928 3.5644C187.446 3.46697 187.979 3.38618 188.506 3.3838C192.806 3.36954 197.108 3.3743 201.41 3.3743C201.555 3.3743 201.7 3.37192 201.843 3.3838C202.282 3.41707 202.427 3.55014 202.43 3.98975C202.43 5.07096 202.412 6.14978 202.399 7.23099C202.394 7.7704 202.389 8.30982 202.371 8.85161C202.363 9.11775 202.18 9.25557 201.909 9.26746C201.524 9.28409 201.137 9.27696 200.749 9.27696C197.462 9.26983 194.178 9.25795 190.891 9.25795C189.595 9.25795 189.59 9.26983 189.58 10.4271C189.572 11.1922 189.583 11.9574 189.598 12.7226C189.606 13.0315 189.781 13.2311 190.128 13.2453C190.513 13.262 190.901 13.2667 191.286 13.2667C193.122 13.2715 194.958 13.2667 196.794 13.2762C197.268 13.2786 197.396 13.3974 197.401 13.8442C197.414 15.3293 197.416 16.8169 197.401 18.302C197.396 18.8343 197.281 18.9389 196.723 18.9413C194.984 18.9508 193.244 18.946 191.503 18.946C191.067 18.946 190.633 18.9389 190.197 18.9579C189.751 18.9769 189.6 19.1124 189.59 19.5377C189.562 20.5738 189.542 21.6074 189.539 22.6435C189.534 26.6048 189.539 30.5684 189.534 34.5296C189.534 34.9716 189.509 35.4136 189.496 35.8532C189.386 35.896 189.279 35.9388 189.17 35.9792L189.172 35.9839Z" fill="#525252"/>
<path d="M211.157 36.1597C210.537 35.5395 210.17 35.1854 209.818 34.8195C208.334 33.2773 206.868 31.7208 205.363 30.1952C204.94 29.7651 204.754 29.3232 204.772 28.7433C204.805 27.6645 204.782 26.5809 204.782 25.5021C204.772 19.8276 204.759 14.1554 204.754 8.48085C204.754 8.07689 204.782 7.67054 204.83 7.26895C205.057 5.41308 206.261 4.10138 208.199 3.64038C208.803 3.49781 209.438 3.39325 210.058 3.3885C214.408 3.36711 218.756 3.37662 223.106 3.37662C223.252 3.37662 223.394 3.38612 223.54 3.398C223.825 3.41939 223.989 3.58098 223.994 3.83286C224.011 4.82377 224.042 5.81467 224.001 6.8032C223.968 7.5945 224.213 8.40957 223.82 9.17948C223.014 9.37196 222.193 9.2674 221.38 9.26978C218.529 9.27928 215.676 9.26027 212.825 9.25552C212.437 9.25552 212.052 9.26027 211.664 9.27215C211.381 9.28166 211.218 9.43849 211.216 9.69275C211.205 10.7288 211.203 11.7625 211.211 12.7985C211.211 13.0457 211.358 13.2263 211.649 13.2405C212.034 13.2572 212.422 13.2643 212.807 13.2643C214.594 13.2667 216.384 13.2595 218.172 13.2714C218.965 13.2762 219.039 13.3403 219.044 14.0057C219.057 15.4006 219.057 16.7978 219.044 18.1927C219.036 18.8747 218.965 18.9365 218.175 18.9412C216.29 18.9531 214.406 18.946 212.519 18.946C211.121 18.946 211.19 18.9079 211.19 20.2101C211.19 24.9841 211.19 29.758 211.19 34.5296C211.19 34.9644 211.17 35.3993 211.152 36.1573L211.157 36.1597Z" fill="#525252"/>
<path d="M122.689 35.6725C122.271 35.6226 122.092 35.3303 121.868 35.1093C120.267 33.5457 118.696 31.956 117.066 30.4186C116.513 29.8958 116.296 29.3587 116.301 28.6316C116.327 23.228 116.317 17.8243 116.317 12.4207C116.317 11.7909 116.324 11.1589 116.304 10.5291C116.291 10.1276 116.128 9.9731 115.671 9.97072C113.932 9.95646 112.191 9.96597 110.452 9.95409C108.136 9.93745 108.452 10.1893 108.432 8.10297C108.419 6.75325 108.422 5.40115 108.437 4.05142C108.445 3.45736 108.554 3.37419 109.212 3.35042C109.503 3.34092 109.791 3.34567 110.082 3.34567C116.462 3.34567 122.842 3.34567 129.22 3.34567C129.605 3.34567 129.992 3.3528 130.377 3.36706C130.663 3.37894 130.813 3.54528 130.831 3.79479C130.854 4.10845 130.852 4.4245 130.849 4.74054C130.844 6.13542 130.839 7.53267 130.826 8.92754C130.816 9.93745 130.808 9.94696 129.663 9.95171C128.021 9.96122 126.376 9.95171 124.734 9.95647C122.607 9.96359 122.824 9.78775 122.824 11.8028C122.817 19.2786 122.824 26.752 122.814 34.2277C122.814 34.7077 122.934 35.2091 122.689 35.6725Z" fill="#525252"/>
<path d="M62.0344 0.0761719C62.195 0.872224 62.1313 1.49956 62.1287 2.12214C62.1058 7.70401 62.0752 13.2859 62.0446 18.8677C62.0369 20.2626 62.0242 21.6575 62.0267 23.0547C62.0267 23.5205 62.1185 23.6084 62.6107 23.6084C65.1224 23.6155 67.6367 23.6132 70.1485 23.6155C70.5361 23.6155 70.9211 23.6155 71.3087 23.6203C71.6683 23.6274 71.8213 23.8223 71.8213 24.1383C71.8213 25.8492 71.8264 27.5602 71.8187 29.2711C71.8187 29.6228 71.653 29.7701 71.3087 29.7843C71.1149 29.7915 70.9237 29.7725 70.7299 29.7725C67.1548 29.7725 63.5797 29.7725 60.0046 29.7843C59.3212 29.7843 58.6531 29.7344 58.0028 29.5396C56.9114 29.2117 56.1949 28.5534 55.9042 27.496C55.7461 26.9233 55.6772 26.3483 55.6798 25.7613C55.6925 18.604 55.7078 11.4466 55.6951 4.28931C55.6951 3.66672 55.9042 3.31266 56.4856 3.01562C58.3063 2.08888 60.0964 1.10985 62.0344 0.0785482V0.0761719Z" fill="#B9B9B9"/>
</g>
<defs>
<clipPath id="clip0_159_15154">
<rect width="229" height="36" fill="white"/>
</clipPath>
</defs>
</svg>
