<svg width="20" height="20" viewBox="0 0 20 20" fill="none" xmlns="http://www.w3.org/2000/svg">
<path d="M1 9C1 5.229 1 3.343 2.172 2.172C3.344 1.001 5.229 1 9 1H11C14.771 1 16.657 1 17.828 2.172C18.999 3.344 19 5.229 19 9V11C19 14.771 19 16.657 17.828 17.828C16.656 18.999 14.771 19 11 19H9C5.229 19 3.343 19 2.172 17.828C1.001 16.656 1 14.771 1 11V9Z" stroke="black"/>
<path fill-rule="evenodd" clip-rule="evenodd" d="M16.998 12.29L16.654 11.947L16.639 11.931C16.238 11.531 15.915 11.208 15.631 10.969C15.339 10.723 15.055 10.535 14.722 10.435C14.2511 10.293 13.7489 10.293 13.278 10.435C12.945 10.535 12.661 10.723 12.368 10.969C12.085 11.208 11.762 11.531 11.361 11.931L11.346 11.947C11.046 12.247 10.846 12.447 10.683 12.581C10.522 12.714 10.452 12.736 10.423 12.741C10.3024 12.7622 10.1782 12.7383 10.074 12.674C10.05 12.658 9.993 12.612 9.893 12.429C9.75478 12.1561 9.628 11.8775 9.513 11.594L9.46 11.47L9.447 11.441C9.083 10.591 8.793 9.91402 8.511 9.41302C8.224 8.90302 7.905 8.49802 7.446 8.26802C7.03467 8.06193 6.57444 7.97335 6.116 8.01202C5.603 8.05502 5.157 8.31202 4.701 8.67902C4.253 9.04002 3.732 9.56002 3.078 10.215L3.056 10.236L3 10.293V11.707L3.763 10.943C4.444 10.263 4.927 9.78102 5.328 9.45802C5.728 9.13702 5.983 9.02702 6.199 9.00802C6.47444 8.98476 6.75094 9.03805 6.998 9.16202C7.192 9.25902 7.388 9.45602 7.639 9.90302C7.892 10.353 8.161 10.978 8.54 11.863L8.594 11.988L8.604 12.011C8.758 12.371 8.888 12.675 9.014 12.907C9.144 13.146 9.304 13.373 9.548 13.524C9.86103 13.7178 10.2344 13.7897 10.597 13.726C10.879 13.676 11.111 13.524 11.32 13.351C11.524 13.183 11.758 12.949 12.036 12.671L12.053 12.654C12.473 12.234 12.766 11.942 13.013 11.734C13.255 11.529 13.419 11.437 13.567 11.392C13.849 11.307 14.151 11.307 14.433 11.392C14.581 11.437 14.745 11.529 14.987 11.733C15.234 11.942 15.527 12.234 15.947 12.654L16.976 13.682C16.989 13.272 16.995 12.812 16.998 12.29Z" fill="black"/>
<path d="M14.5 7C15.3284 7 16 6.32843 16 5.5C16 4.67157 15.3284 4 14.5 4C13.6716 4 13 4.67157 13 5.5C13 6.32843 13.6716 7 14.5 7Z" fill="black"/>
</svg>
