<svg width="29" height="28" viewBox="0 0 29 28" fill="none" xmlns="http://www.w3.org/2000/svg">
<path d="M23.4621 6.51652C23.4621 7.3994 22.7598 8.15616 21.8509 8.15616C20.942 8.15616 20.2396 7.44144 20.2396 6.51652C20.2396 5.59159 20.942 4.87688 21.8509 4.87688C22.7598 4.87688 23.4621 5.59159 23.4621 6.51652ZM21.479 13.7898C21.479 17.5315 18.4631 20.6006 14.7862 20.6006C11.1093 20.6006 8.09345 17.5315 8.09345 13.7898C8.09345 10.048 11.1093 6.97898 14.7862 6.97898C18.4631 6.97898 21.479 10.048 21.479 13.7898ZM19.0828 13.7898C19.0828 11.3934 17.1411 9.41741 14.7862 9.41741C12.4314 9.41741 10.4896 11.3934 10.4896 13.7898C10.4896 16.1862 12.4314 18.1622 14.7862 18.1622C17.1411 18.1622 19.0828 16.1862 19.0828 13.7898ZM28.3784 8.32433C28.3784 3.74174 24.7015 0 20.1983 0H9.00234C4.49917 0 0.822266 3.74174 0.822266 8.32433V19.6757C0.822266 24.2583 4.49917 28 9.00234 28H20.157C24.6602 28 28.3371 24.2583 28.3371 19.6757V8.32433H28.3784ZM25.693 19.5495C25.693 22.7027 23.1729 25.2673 20.0744 25.2673H9.12629C6.02777 25.2673 3.50764 22.7027 3.50764 19.5495V8.45045C3.50764 5.2973 6.02777 2.73273 9.12629 2.73273H20.0331C23.1316 2.73273 25.6517 5.2973 25.6517 8.45045V19.5495H25.693Z" fill="#90FF00"/>
</svg>
