<svg width="139" height="50" viewBox="0 0 139 50" fill="none" xmlns="http://www.w3.org/2000/svg">
<g clip-path="url(#clip0_274_8464)">
<path d="M93.2525 12.5754C93.5089 12.6573 93.7166 12.7124 93.9161 12.788C94.7306 13.1012 95.2157 13.6207 95.2141 14.5369C95.2093 16.3567 95.2547 18.1764 95.2774 19.9962C95.2904 21.01 95.3017 22.0253 95.3066 23.0391C95.3066 23.3004 95.3553 23.5696 95.2531 23.8246C95.0567 23.9049 94.9675 23.7522 94.8718 23.6562C93.7214 22.4944 92.5857 21.3185 91.4224 20.1678C91.093 19.8435 90.9616 19.4893 90.9551 19.0517C90.9389 17.9482 90.9048 16.8446 90.8756 15.7411C90.8707 15.5333 90.8659 15.324 90.8464 15.1162C90.8302 14.9493 90.7247 14.847 90.5478 14.8423C90.2412 14.8328 89.9329 14.8281 89.6263 14.8265C88.3348 14.8187 87.0433 14.8061 85.7501 14.8076C85.3348 14.8076 85.278 14.8643 85.2796 15.2846C85.2845 16.3881 85.3056 17.4916 85.3202 18.5967C85.3234 18.8659 85.3267 19.1335 85.3218 19.4027C85.3186 19.5727 85.2261 19.6798 85.0476 19.6955C84.8951 19.7081 84.7409 19.7128 84.5868 19.7128C83.5095 19.7128 82.4338 19.7175 81.3564 19.7128C80.6198 19.7097 80.6149 19.7034 80.6117 18.9525C80.6068 17.5499 80.6052 16.1473 80.6117 14.7447C80.6231 11.612 80.6409 8.47941 80.6555 5.34677C80.6555 5.19722 80.6555 5.04767 80.6652 4.8997C80.7431 3.75684 81.3775 2.954 82.5084 2.57934C83.0649 2.39516 83.6441 2.29914 84.2299 2.29756C86.967 2.28812 89.7058 2.26765 92.4429 2.30071C94.3282 2.32432 95.3212 3.3019 95.4072 5.1437C95.4429 5.9182 95.4137 6.69585 95.4153 7.47035C95.4153 8.36606 95.3861 9.26178 95.4234 10.1559C95.4624 11.1193 95.0405 11.7443 94.1254 12.0969C93.848 12.2039 93.5332 12.2638 93.2558 12.577L93.2525 12.5754ZM88.4159 10.3039C89.1525 10.3039 89.8907 10.3118 90.6273 10.3023C90.9275 10.2992 91.02 10.2142 91.02 9.93081C91.0232 8.53135 91.0167 7.13032 91.0054 5.73087C91.0038 5.45539 90.9064 5.36566 90.603 5.36408C89.1282 5.35621 87.6549 5.35464 86.1801 5.36251C85.7875 5.36408 85.7274 5.43335 85.7274 5.86783C85.7274 7.14922 85.742 8.42903 85.7518 9.71042C85.7518 9.80015 85.755 9.88988 85.7615 9.97803C85.7777 10.1874 85.8929 10.3039 86.112 10.3039C86.8794 10.3055 87.6468 10.3039 88.4159 10.3039Z" fill="#90FF00"/>
<path d="M110.898 14.5591C110.898 17.3643 110.898 20.1679 110.898 22.9731C110.898 23.2124 110.896 23.4501 110.883 23.6878C110.88 23.7382 110.843 23.8043 110.801 23.831C110.711 23.8846 110.633 23.8373 110.569 23.7681C110.507 23.702 110.442 23.6374 110.382 23.5713C109.35 22.4253 108.326 21.273 107.285 20.1348C107.001 19.8263 106.881 19.502 106.887 19.088C106.907 17.8649 106.895 16.6417 106.894 15.4186C106.894 15.2092 106.899 14.9998 106.887 14.792C106.869 14.4693 106.787 14.3969 106.43 14.3765C106.337 14.3702 106.245 14.3717 106.152 14.3733C104.583 14.3812 103.016 14.3906 101.447 14.4001C101.325 14.4001 101.202 14.4095 101.08 14.4268C100.947 14.4473 100.86 14.5323 100.85 14.663C100.835 14.8708 100.83 15.0801 100.83 15.2879C100.824 16.4213 100.821 17.5547 100.816 18.6897C100.816 18.8991 100.816 19.1069 100.808 19.3163C100.8 19.5351 100.663 19.628 100.451 19.6343C100.389 19.6358 100.327 19.639 100.266 19.639C99.2809 19.639 98.2977 19.6453 97.3128 19.6358C96.8715 19.6327 96.8228 19.5792 96.8034 19.184C96.7952 19.0046 96.8001 18.8267 96.8001 18.6472C96.8001 14.589 96.8034 10.5323 96.7969 6.47403C96.7969 5.90417 96.8504 5.34218 96.951 4.78335C97.1782 3.53029 97.9553 2.77153 99.2095 2.46456C99.6557 2.35437 100.113 2.304 100.579 2.30715C102.763 2.31502 104.947 2.304 107.131 2.31659C107.559 2.31816 107.992 2.36067 108.412 2.43308C109.77 2.66921 110.523 3.40436 110.778 4.72195C110.875 5.22097 110.9 5.72786 110.898 6.23632C110.893 9.01162 110.896 11.7853 110.896 14.5606L110.898 14.5591ZM103.816 6.05372V6.05686C102.956 6.05686 102.096 6.05057 101.236 6.06001C100.934 6.06316 100.845 6.14817 100.84 6.42995C100.829 7.02499 100.832 7.62161 100.832 8.21823C100.832 8.84318 100.835 9.46971 100.842 10.0947C100.843 10.2615 100.937 10.3749 101.113 10.3985C101.264 10.4189 101.418 10.4268 101.57 10.4268C102.523 10.43 103.475 10.4268 104.427 10.4268C105.012 10.4268 105.596 10.4331 106.178 10.4237C106.679 10.4158 106.733 10.3733 106.733 9.93095C106.73 8.7991 106.718 7.66569 106.696 6.53384C106.688 6.12456 106.616 6.06001 106.212 6.05529C105.414 6.04585 104.614 6.05214 103.816 6.05214V6.05372Z" fill="#90FF00"/>
<path d="M14.7632 23.7694C14.5084 23.7946 14.4452 23.6829 14.364 23.601C13.2186 22.4345 12.0812 21.2633 10.926 20.1063C10.6502 19.8308 10.5366 19.5427 10.5398 19.1555C10.5528 17.4255 10.5398 15.6954 10.5269 13.9654C10.5252 13.6742 10.5966 13.3704 10.4165 13.0476C10.1618 13.0476 9.88597 13.0476 9.61015 13.0476C8.22616 13.0476 6.84217 13.0492 5.45981 13.0476C4.93088 13.0476 4.84489 13.0791 4.84651 13.6679C4.85138 15.3381 4.84813 17.0083 4.84651 18.6785C4.84651 18.9178 4.84164 19.1555 4.84651 19.3948C4.84975 19.6262 4.71833 19.7017 4.50092 19.7017C3.27107 19.7002 2.04122 19.7002 0.811372 19.7002C0.632897 19.7002 0.5177 19.6341 0.514455 19.4467C0.509588 19.2074 0.507965 18.9697 0.507965 18.7305C0.507965 13.6002 0.506343 8.4699 0.511211 3.33961C0.511211 3.01848 0.430086 2.68475 0.62154 2.32269C0.999581 2.32269 1.39709 2.31954 1.79298 2.32269C2.74538 2.33371 3.69778 2.3463 4.65019 2.36362C4.96819 2.36991 5.02174 2.42186 5.02823 2.72883C5.04607 3.56315 5.05743 4.39747 5.06879 5.23336C5.08339 6.27705 5.0915 7.32074 5.10773 8.36443C5.1126 8.69186 5.15478 8.73594 5.4663 8.74223C7.18614 8.77057 8.90761 8.79576 10.6047 8.82094C10.8075 8.59111 10.7491 8.34554 10.7508 8.11256C10.7556 6.47225 10.7524 4.83195 10.754 3.19164C10.754 2.98385 10.7589 2.77448 10.7735 2.56669C10.7832 2.43131 10.8789 2.35102 11.0136 2.34315C11.2586 2.32741 11.5036 2.32426 11.7502 2.32426C12.5809 2.32269 13.41 2.31797 14.2407 2.32741C14.6577 2.33213 14.6934 2.38093 14.708 2.80911C14.7113 2.92875 14.708 3.04839 14.708 3.16645C14.7145 6.02991 14.7226 8.89336 14.7291 11.7568C14.7388 15.634 14.7502 19.5113 14.7616 23.3885C14.7616 23.5066 14.7616 23.6246 14.7616 23.7679L14.7632 23.7694Z" fill="white"/>
<path d="M16.2039 10.9304C16.2039 9.08075 16.2071 7.23108 16.2039 5.3814C16.2039 4.75015 16.2753 4.13779 16.5332 3.5459C16.7928 2.95086 17.2212 2.58407 17.8637 2.41563C18.3164 2.29757 18.7707 2.26451 19.2331 2.26766C21.4478 2.27868 23.6625 2.2897 25.8755 2.29914C26.3055 2.30072 26.7371 2.29442 27.1671 2.28497C27.5386 2.2771 27.9004 2.3259 28.2622 2.41248C28.8398 2.55259 29.2487 2.88002 29.4969 3.39793C29.7728 3.97408 29.9091 4.58172 29.9074 5.21769C29.9058 6.08349 29.9074 6.94772 29.9074 7.81353C29.9123 10.5589 29.9188 13.3027 29.922 16.0481C29.922 16.555 29.9009 17.0556 29.7858 17.5578C29.5326 18.6581 28.6922 19.461 27.3163 19.6325C27.0729 19.6625 26.8247 19.6577 26.5797 19.6577C24.3342 19.6593 22.0887 19.6546 19.8431 19.6609C19.1292 19.6625 18.4429 19.5586 17.768 19.3193C16.8561 18.995 16.3937 18.3527 16.2574 17.4602C16.2039 17.1075 16.1893 16.7471 16.1877 16.3897C16.1812 14.5699 16.1844 12.7502 16.1844 10.9304C16.1909 10.9304 16.199 10.9304 16.2055 10.9304H16.2039ZM19.934 10.6817C19.934 10.6817 19.9437 10.6817 19.9502 10.6817C19.9502 12.0245 19.9502 13.3657 19.9502 14.7085C19.9502 14.858 19.9502 15.006 19.9535 15.1555C19.9583 15.3791 20.0946 15.4672 20.3088 15.4688C20.4013 15.4688 20.4937 15.4704 20.5862 15.4704C22.246 15.4704 23.9075 15.4704 25.5673 15.4704C25.689 15.4704 25.8123 15.4641 25.934 15.4515C26.0735 15.4358 26.1481 15.3444 26.1595 15.2154C26.1725 15.0674 26.1757 14.9178 26.1757 14.7699C26.1757 12.0261 26.1757 9.28225 26.1757 6.53843C26.1757 6.38889 26.1725 6.24091 26.1644 6.09136C26.1579 5.95598 26.0767 5.8694 25.9404 5.85838C25.7571 5.84264 25.5721 5.83949 25.3888 5.83949C23.8523 5.83949 22.3142 5.83949 20.7777 5.83949C20.5927 5.83949 20.4094 5.83949 20.2244 5.84736C20.0443 5.85366 19.947 5.94654 19.9421 6.12285C19.9372 6.2724 19.9356 6.42037 19.9356 6.56992C19.9356 7.94261 19.9356 9.31373 19.9356 10.6864L19.934 10.6817Z" fill="white"/>
<path d="M52.0297 23.8466C51.8528 23.8466 51.7684 23.7128 51.6662 23.6152C50.4639 22.4597 49.273 21.2948 48.0578 20.1535C47.7495 19.8623 47.6084 19.5663 47.6084 19.1429C47.6051 17.4727 47.5662 15.8024 47.5386 14.1322C47.5354 13.9528 47.5386 13.7733 47.5207 13.5954C47.4818 13.1877 47.5678 13.0287 46.9513 13.0067C46.239 12.9815 45.564 12.78 44.9069 12.5092C44.0924 12.1739 43.544 11.6009 43.2357 10.8138C42.9956 10.1999 42.8269 9.56551 42.8301 8.89648C42.8399 6.98699 42.8415 5.07749 42.848 3.168C42.848 2.98854 42.8512 2.80909 42.8626 2.6312C42.8739 2.46277 42.9697 2.35257 43.1481 2.34155C43.3623 2.32896 43.5781 2.32738 43.7923 2.32738C44.868 2.32738 45.9437 2.32738 46.9788 2.32738C47.1816 2.54462 47.1346 2.76029 47.1346 2.96493C47.1378 4.54699 47.1346 6.12748 47.1362 7.70954C47.1362 7.94882 47.1362 8.18652 47.1427 8.4258C47.146 8.59581 47.2336 8.69813 47.4153 8.71072C47.4769 8.71545 47.5386 8.71702 47.6002 8.71702C49.2617 8.71702 50.9231 8.72017 52.5845 8.71545C52.9772 8.71545 52.9983 8.69341 52.9999 8.29671C53.0048 6.5651 52.9967 4.83507 53.0048 3.10346C53.0096 2.18728 52.875 2.40452 53.6911 1.92597C54.7684 1.29472 55.8587 0.685505 56.9263 0.0762939C57.1421 0.162874 57.1081 0.323442 57.1081 0.463545C57.1081 3.29866 57.1097 6.13378 57.1081 8.96889C57.1081 9.20659 57.0935 9.44744 57.061 9.68357C56.8988 10.8579 56.2984 11.7442 55.2097 12.2999C54.5478 12.6383 53.8355 12.7894 53.0973 12.8902C51.9534 13.046 52.1335 12.8304 52.127 13.9276C52.1124 16.9705 52.1108 20.015 52.0994 23.0579C52.0994 23.3208 52.1627 23.5947 52.0313 23.8481L52.0297 23.8466Z" fill="white"/>
<path d="M116.333 23.9113C116.224 23.7681 116.126 23.617 116.004 23.4847C114.961 22.3482 113.922 21.2085 112.863 20.0876C112.572 19.7807 112.455 19.4611 112.457 19.0455C112.468 14.5418 112.464 10.038 112.465 5.53425C112.465 5.32645 112.47 5.11551 112.499 4.90929C112.694 3.54604 113.51 2.70385 114.905 2.43467C115.235 2.37012 115.574 2.3166 115.91 2.31503C118.645 2.30558 121.382 2.30873 124.12 2.30873C124.212 2.30873 124.304 2.30716 124.395 2.31503C124.674 2.33707 124.767 2.42522 124.769 2.71645C124.769 3.4327 124.757 4.14738 124.749 4.86364C124.746 5.22098 124.743 5.57832 124.731 5.93724C124.726 6.11355 124.61 6.20485 124.438 6.21272C124.193 6.22374 123.946 6.21902 123.699 6.21902C121.608 6.2143 119.518 6.20642 117.427 6.20642C116.603 6.20642 116.599 6.2143 116.593 6.98093C116.588 7.48781 116.594 7.9947 116.604 8.50159C116.609 8.70624 116.721 8.83847 116.942 8.84791C117.187 8.85893 117.433 8.86208 117.678 8.86208C118.846 8.86523 120.015 8.86208 121.183 8.86838C121.485 8.86995 121.566 8.94866 121.569 9.24461C121.577 10.2285 121.579 11.2139 121.569 12.1978C121.566 12.5504 121.493 12.6197 121.137 12.6212C120.031 12.6275 118.924 12.6244 117.816 12.6244C117.539 12.6244 117.263 12.6197 116.985 12.6323C116.701 12.6449 116.606 12.7346 116.599 13.0164C116.581 13.7027 116.568 14.3875 116.567 15.0738C116.564 17.698 116.567 20.3238 116.564 22.9479C116.564 23.2407 116.547 23.5335 116.539 23.8248C116.469 23.8531 116.401 23.8814 116.332 23.9082L116.333 23.9113Z" fill="#90FF00"/>
<path d="M130.322 24.0278C129.928 23.6169 129.694 23.3823 129.47 23.1399C128.526 22.1183 127.593 21.0872 126.636 20.0765C126.366 19.7916 126.248 19.4988 126.259 19.1147C126.28 18.4 126.266 17.6822 126.266 16.9675C126.259 13.2083 126.251 9.45076 126.248 5.69159C126.248 5.42398 126.266 5.15479 126.297 4.88876C126.441 3.65931 127.207 2.79036 128.44 2.48497C128.825 2.39052 129.229 2.32125 129.623 2.3181C132.391 2.30394 135.157 2.31023 137.925 2.31023C138.018 2.31023 138.108 2.31653 138.201 2.3244C138.383 2.33857 138.486 2.44561 138.49 2.61248C138.501 3.26891 138.521 3.92535 138.495 4.58021C138.474 5.10442 138.629 5.64437 138.379 6.1544C137.867 6.28191 137.344 6.21265 136.827 6.21422C135.013 6.22052 133.197 6.20793 131.383 6.20478C131.137 6.20478 130.892 6.20793 130.645 6.2158C130.465 6.22209 130.361 6.32599 130.359 6.49443C130.353 7.18078 130.351 7.86555 130.356 8.55189C130.356 8.71561 130.45 8.83525 130.635 8.84469C130.88 8.85571 131.127 8.86044 131.372 8.86044C132.509 8.86201 133.648 8.85729 134.786 8.86516C135.29 8.86831 135.337 8.91081 135.34 9.35158C135.349 10.2756 135.349 11.2013 135.34 12.1253C135.336 12.5771 135.29 12.618 134.787 12.6212C133.588 12.629 132.389 12.6243 131.189 12.6243C130.299 12.6243 130.343 12.5991 130.343 13.4618C130.343 16.6243 130.343 19.7869 130.343 22.9479C130.343 23.2359 130.33 23.524 130.319 24.0262L130.322 24.0278Z" fill="#90FF00"/>
<path d="M74.0336 23.705C73.7675 23.6719 73.6539 23.4783 73.5111 23.3319C72.4922 22.2961 71.4928 21.243 70.456 20.2245C70.1039 19.8781 69.966 19.5224 69.9692 19.0407C69.9855 15.461 69.979 11.8813 69.979 8.30156C69.979 7.8844 69.9838 7.46566 69.9709 7.0485C69.9627 6.78246 69.8589 6.68014 69.5685 6.67857C68.4619 6.66912 67.3538 6.67542 66.2472 6.66755C64.774 6.65653 64.9752 6.82339 64.9622 5.44125C64.9541 4.54712 64.9557 3.6514 64.9655 2.75726C64.9703 2.36371 65.0401 2.30862 65.4587 2.29288C65.6437 2.28658 65.827 2.28973 66.012 2.28973C70.0715 2.28973 74.1309 2.28973 78.1888 2.28973C78.4338 2.28973 78.6804 2.29445 78.9254 2.3039C79.1071 2.31177 79.2028 2.42196 79.2142 2.58725C79.2288 2.79504 79.2272 3.00441 79.2255 3.21378C79.2223 4.13783 79.2191 5.06345 79.2109 5.9875C79.2045 6.65653 79.1996 6.66283 78.4711 6.66597C77.4262 6.67227 76.3797 6.66598 75.3348 6.66912C73.9817 6.67385 74.1196 6.55736 74.1196 7.89227C74.1147 12.8447 74.1196 17.7955 74.1131 22.7479C74.1131 23.0659 74.1893 23.398 74.0336 23.705Z" fill="#90FF00"/>
<path d="M35.4398 0.123535C35.542 0.650889 35.5014 1.06647 35.4998 1.47891C35.4852 5.17668 35.4657 8.87446 35.4463 12.5722C35.4414 13.4963 35.4333 14.4203 35.4349 15.3459C35.4349 15.6545 35.4933 15.7127 35.8065 15.7127C37.4046 15.7175 39.0044 15.7159 40.6025 15.7175C40.8492 15.7175 41.0942 15.7175 41.3408 15.7206C41.5696 15.7253 41.6669 15.8544 41.6669 16.0638C41.6669 17.1972 41.6701 18.3306 41.6653 19.464C41.6653 19.697 41.5598 19.7946 41.3408 19.8041C41.2175 19.8088 41.0958 19.7962 40.9725 19.7962C38.6977 19.7962 36.423 19.7962 34.1483 19.8041C33.7134 19.8041 33.2884 19.771 32.8746 19.6419C32.1802 19.4247 31.7243 18.9886 31.5393 18.2881C31.4387 17.9087 31.3949 17.5278 31.3965 17.139C31.4046 12.3975 31.4144 7.65603 31.4063 2.91457C31.4063 2.50214 31.5393 2.26758 31.9092 2.07081C33.0677 1.45687 34.2067 0.808308 35.4398 0.125109V0.123535Z" fill="white"/>
</g>
<path d="M0.423828 49.9268V26.4219H7.55601L11.8385 42.4553L16.0728 26.4219H23.221V49.9268H18.7936V31.4243L14.1086 49.9268H9.52018L4.85125 31.4243V49.9268H0.423828Z" fill="white"/>
<path d="M49.2382 49.9268H44.0541L41.9933 44.5877H32.5589L30.6108 49.9268H25.5555L34.7485 26.4219H39.7877L49.2382 49.9268ZM40.4639 40.6275L37.2117 31.9053L34.024 40.6275H40.4639Z" fill="white"/>
<path d="M51.7981 49.9268V26.4219H61.8282C64.3505 26.4219 66.1805 26.6357 67.3182 27.0632C68.4667 27.4801 69.3843 28.2283 70.0713 29.3079C70.7582 30.3875 71.1016 31.622 71.1016 33.0116C71.1016 34.7753 70.5811 36.2343 69.54 37.3887C68.4989 38.5324 66.9426 39.2539 64.8711 39.5532C65.9014 40.1518 66.7494 40.8092 67.4148 41.5253C68.091 42.2415 68.9979 43.5135 70.1357 45.3413L73.0175 49.9268H67.3182L63.8729 44.8122C62.6493 42.9844 61.8121 41.8353 61.3613 41.365C60.9105 40.884 60.4329 40.558 59.9284 40.387C59.424 40.2053 58.6244 40.1144 57.5296 40.1144H56.5636V49.9268H51.7981ZM56.5636 36.3626H60.0894C62.3756 36.3626 63.8031 36.2664 64.372 36.074C64.9408 35.8816 65.3862 35.5502 65.7082 35.0799C66.0302 34.6096 66.1912 34.0217 66.1912 33.3162C66.1912 32.5253 65.9766 31.8893 65.5472 31.4083C65.1286 30.9166 64.533 30.6066 63.7602 30.4783C63.3738 30.4249 62.2146 30.3982 60.2826 30.3982H56.5636V36.3626Z" fill="white"/>
<path d="M75.674 49.9268V26.4219H80.4395V36.8596L90.0671 26.4219H96.4748L87.5878 35.5769L96.9578 49.9268H90.7916L84.3034 38.8959L80.4395 42.824V49.9268H75.674Z" fill="white"/>
<path d="M126.742 49.9268V30.3982H119.739V26.4219H138.495V30.3982H131.508V49.9268H126.742Z" fill="white"/>
<path d="M99.4372 49.9268V26.4219H116.938V30.3982H104.203V35.609H116.052V39.5693H104.203V45.9666H117.388V49.9268H99.4372Z" fill="white"/>
<defs>
<clipPath id="clip0_274_8464">
<rect width="138.071" height="23.8486" fill="white" transform="translate(0.423828 0.0732422)"/>
</clipPath>
</defs>
</svg>
