<svg width="300" height="300" viewBox="0 0 300 300" fill="none" xmlns="http://www.w3.org/2000/svg">
  <rect width="300" height="300" fill="#F3F4F6"/>
  <path d="M150 100C133.431 100 120 113.431 120 130C120 146.569 133.431 160 150 160C166.569 160 180 146.569 180 130C180 113.431 166.569 100 150 100ZM150 150C141.716 150 135 143.284 135 135C135 126.716 141.716 120 150 120C158.284 120 165 126.716 165 135C165 143.284 158.284 150 150 150Z" fill="#9CA3AF"/>
  <path d="M150 80C120.654 80 96 104.654 96 134C96 163.346 120.654 188 150 188C179.346 188 204 163.346 204 134C204 104.654 179.346 80 150 80ZM150 170C130.118 170 114 153.882 114 134C114 114.118 130.118 98 150 98C169.882 98 186 114.118 186 134C186 153.882 169.882 170 150 170Z" fill="#9CA3AF"/>
  <text x="150" y="220" text-anchor="middle" font-family="Arial, sans-serif" font-size="14" fill="#6B7280">No Image</text>
</svg>
