<svg width="23" height="22" viewBox="0 0 23 22" fill="none" xmlns="http://www.w3.org/2000/svg">
<path d="M11.084 18C11.6363 18 12.084 18.4477 12.084 19V21C12.084 21.5523 11.6363 22 11.084 22C10.5317 22 10.084 21.5523 10.084 21V19C10.084 18.4477 10.5317 18 11.084 18ZM4.20508 16.707C4.59553 16.3166 5.2286 16.3167 5.61914 16.707C6.00967 17.0976 6.00967 17.7306 5.61914 18.1211L4.20508 19.5352C3.81455 19.9257 3.18154 19.9257 2.79102 19.5352C2.40072 19.1446 2.40057 18.5115 2.79102 18.1211L4.20508 16.707ZM16.791 16.707C17.1815 16.3166 17.8145 16.3167 18.2051 16.707L19.6191 18.1211C20.0097 18.5116 20.0097 19.1446 19.6191 19.5352C19.2286 19.9257 18.5956 19.9257 18.2051 19.5352L16.791 18.1211C16.4006 17.7306 16.4005 17.0975 16.791 16.707ZM11.084 5C14.3977 5 17.084 7.68629 17.084 11C17.084 14.3137 14.3977 17 11.084 17C7.77028 17 5.08398 14.3137 5.08398 11C5.08398 7.68629 7.77028 5 11.084 5ZM3.08398 10C3.63627 10 4.08398 10.4477 4.08398 11C4.08398 11.5523 3.63627 12 3.08398 12H1.08398C0.5317 12 0.0839844 11.5523 0.0839844 11C0.0839844 10.4477 0.5317 10 1.08398 10H3.08398ZM21.084 10C21.6363 10 22.084 10.4477 22.084 11C22.084 11.5523 21.6363 12 21.084 12H19.084C18.5317 12 18.084 11.5523 18.084 11C18.084 10.4477 18.5317 10 19.084 10H21.084ZM2.79102 2.70703C3.18149 2.31656 3.81454 2.31666 4.20508 2.70703L5.61914 4.12109C6.00966 4.51162 6.00966 5.14463 5.61914 5.53516C5.22862 5.92568 4.5956 5.92568 4.20508 5.53516L2.79102 4.12109C2.40065 3.73056 2.40054 3.0975 2.79102 2.70703ZM18.2051 2.70703C18.5955 2.31658 19.2286 2.31674 19.6191 2.70703C20.0097 3.09756 20.0097 3.73057 19.6191 4.12109L18.2051 5.53516C17.8146 5.92568 17.1815 5.92568 16.791 5.53516C16.4007 5.14461 16.4006 4.51154 16.791 4.12109L18.2051 2.70703ZM11.084 0C11.6363 0 12.084 0.447715 12.084 1V3C12.084 3.55228 11.6363 4 11.084 4C10.5317 4 10.084 3.55228 10.084 3V1C10.084 0.447715 10.5317 0 11.084 0Z" fill="#F4F4F4"/>
</svg>
