<svg width="34" height="28" viewBox="0 0 34 28" fill="none" xmlns="http://www.w3.org/2000/svg">
<path d="M17.8032 21.9996C15.9991 23.4007 14.8121 25.3816 12.6282 26.3962C12.6282 26.058 12.6282 25.8648 12.6282 25.7198C12.8181 23.4973 12.9605 21.2748 13.1504 19.0523C13.1504 18.7141 13.3878 18.2793 13.6252 18.0377C17.9932 13.931 22.4086 9.82419 26.824 5.71742C27.0139 5.52416 27.2038 5.28259 27.3937 5.08933C27.3937 4.9927 27.2988 4.89607 27.2513 4.84775C26.919 4.94438 26.4917 4.9927 26.2068 5.18596C22.5985 7.50508 18.9427 9.82419 15.3344 12.1433C13.3878 13.3995 11.4412 14.6557 9.49463 15.9119C9.11481 16.1535 8.78247 16.2018 8.35517 16.1051C5.98128 15.3321 3.65487 14.6557 1.28098 13.8826C0.901161 13.6411 0.378906 13.2546 0.378906 12.9647C0.378906 12.6265 0.71125 12.0467 1.04359 11.9017C2.5154 11.2253 4.08217 10.5972 5.60146 10.0175C13.8626 6.78035 22.1237 3.54325 30.3848 0.30615C30.5748 0.20952 30.7647 0.161205 30.9546 0.11289C32.189 -0.273629 33.1385 0.354465 33.0436 1.65897C32.9486 2.7219 32.7113 3.83314 32.4739 4.89607C31.0495 11.8534 29.5777 18.8108 28.1059 25.7681C28.0584 26.0097 28.011 26.2513 27.9635 26.4928C27.5837 27.9906 26.5866 28.4254 25.3047 27.5558C24.4501 26.976 23.643 26.3479 22.8359 25.7198C21.1742 24.4636 19.5124 23.2557 17.8982 21.9996H17.8032Z" fill="#90FF00"/>
</svg>
