<svg width="38" height="31" viewBox="0 0 38 31" fill="none" xmlns="http://www.w3.org/2000/svg">
<path d="M20.3462 24.3567C18.303 25.9079 16.9588 28.1011 14.4855 29.2244C14.4855 28.8499 14.4855 28.636 14.4855 28.4755C14.7006 26.0149 14.8619 23.5543 15.077 21.0937C15.077 20.7192 15.3458 20.2378 15.6146 19.9703C20.5613 15.4236 25.5618 10.8768 30.5622 6.33001C30.7773 6.11604 30.9924 5.84858 31.2074 5.63461C31.2074 5.52763 31.0999 5.42065 31.0461 5.36716C30.6698 5.47414 30.1858 5.52763 29.8632 5.7416C25.7768 8.30919 21.6367 10.8768 17.5503 13.4444C15.3458 14.8352 13.1413 16.2259 10.9368 17.6167C10.5066 17.8842 10.1303 17.9377 9.64635 17.8307C6.95794 16.9748 4.32329 16.2259 1.63488 15.3701C1.20473 15.1026 0.613281 14.6747 0.613281 14.3537C0.613281 13.9793 0.989659 13.3374 1.36604 13.1769C3.03285 12.428 4.80721 11.7327 6.52779 11.0908C15.8835 7.50682 25.2392 3.92289 34.5948 0.338952C34.8099 0.231969 35.025 0.178477 35.2401 0.124986C36.638 -0.302947 37.7134 0.392443 37.6059 1.83672C37.4983 3.01353 37.2295 4.24383 36.9606 5.42065C35.3476 13.1234 33.6808 20.8262 32.014 28.529C31.9602 28.7965 31.9064 29.0639 31.8527 29.3314C31.4225 30.9896 30.2934 31.471 28.8416 30.5082C27.8738 29.8663 26.9597 29.1709 26.0457 28.4755C24.1638 27.0847 22.2819 25.7474 20.4538 24.3567H20.3462Z" fill="white"/>
</svg>
