<svg width="25" height="28" viewBox="0 0 25 28" fill="none" xmlns="http://www.w3.org/2000/svg">
<g clip-path="url(#clip0_333_1558)">
<path d="M24.3648 6.81845C24.3648 6.69118 24.3648 6.68733 24.2303 6.68733C23.9115 6.68733 23.6003 6.65261 23.2892 6.60633C22.1559 6.43278 18.4835 4.50055 17.8611 1.33416C17.8496 1.27245 17.7113 0.485671 17.7113 0.153991C17.7113 0.00357756 17.7113 0.00357756 17.5615 0.00357756C17.5269 0.00357756 17.4924 0.00357756 17.4616 0.00357756C16.0211 -0.00027919 14.5844 -0.00027919 13.1476 -0.00027919C12.8595 -0.00027919 12.8979 -0.0388467 12.8979 0.254266C12.8979 6.51377 12.8979 12.7733 12.8979 19.0328C12.8979 19.268 12.8903 19.4994 12.8518 19.727C12.6367 20.938 12.0182 21.8868 10.9734 22.5347C10.0668 23.0939 9.08335 23.2559 8.03847 23.0477C7.7081 22.9821 7.40078 22.8587 7.09346 22.7353C7.07042 22.7121 7.04352 22.689 7.01663 22.6658C6.91291 22.5771 6.79767 22.5077 6.68627 22.4267C5.35711 21.5011 4.72327 20.2168 4.91534 18.6124C5.11126 16.9848 6.04474 15.878 7.58133 15.3072C8.03847 15.1375 8.5225 15.068 9.01421 15.095C9.32921 15.1105 9.64421 15.1529 9.95153 15.2416C10.0591 15.2724 10.1167 15.2339 10.1206 15.122C10.1206 15.0835 10.1206 15.0449 10.1206 15.0025C10.1206 13.8802 10.0783 11.4234 10.0745 11.4196C10.0745 11.0956 10.0745 10.7716 10.0821 10.4477C10.0821 10.3551 10.0399 10.3397 9.95921 10.3281C9.37915 10.2587 8.79908 10.2471 8.21518 10.2895C7.40847 10.3474 6.62864 10.5132 5.86803 10.787C4.65796 11.2229 3.59387 11.9017 2.67576 12.8041C1.88825 13.5793 1.26978 14.4741 0.812639 15.4846C0.378551 16.4526 0.128855 17.4669 0.0597083 18.5237C0.0289764 18.9826 0.0366594 19.4416 0.0789157 19.9005C0.136538 20.5369 0.255624 21.1578 0.447698 21.7634C1.00087 23.5066 2.00734 24.9375 3.43253 26.0752C3.57851 26.1909 3.7168 26.3182 3.88967 26.3915C3.96266 26.457 4.03564 26.5226 4.10863 26.5843C4.33912 26.7578 4.58882 26.9083 4.8462 27.0355C6.44425 27.8262 8.12682 28.1501 9.90159 27.9342C12.2026 27.6526 14.1195 26.6267 15.6292 24.8642C17.0506 23.2019 17.7421 21.2543 17.7536 19.0752C17.7728 15.959 17.7574 12.8388 17.7613 9.72259C17.7613 9.64931 17.719 9.54132 17.7997 9.50661C17.865 9.47575 17.9264 9.56446 17.9879 9.60303C19.1442 10.3667 20.3888 10.9182 21.741 11.2267C22.5247 11.408 23.3199 11.516 24.1266 11.516C24.3801 11.516 24.4147 11.5044 24.4147 11.2499C24.4147 10.143 24.3571 7.11542 24.3571 6.82231L24.3648 6.81845Z" fill="#90FF00"/>
</g>
<defs>
<clipPath id="clip0_333_1558">
<rect width="24.3704" height="28" fill="white" transform="translate(0.0488281)"/>
</clipPath>
</defs>
</svg>
