<svg width="35" height="24" viewBox="0 0 35 24" fill="none" xmlns="http://www.w3.org/2000/svg">
<path d="M17.8722 23.991C14.9173 23.991 11.9623 24.0137 9.00808 23.9816C7.53427 23.9656 6.07842 23.7626 4.68642 23.2195C2.98183 22.5543 1.88645 21.3354 1.35173 19.5915C0.9733 18.3598 0.846271 17.0881 0.836959 15.8111C0.815677 12.8676 0.818337 9.92414 0.83962 6.98133C0.847601 5.89464 0.92608 4.80728 1.23667 3.75332C1.68094 2.24651 2.65661 1.25934 4.11977 0.728356C5.56498 0.203378 7.07404 0.0283862 8.58842 0.0210392C14.741 -0.00768096 20.8943 -0.00567723 27.0476 0.0190354C28.4177 0.0243787 29.7804 0.188017 31.1092 0.582083C33.0878 1.16851 34.2238 2.49164 34.5503 4.50872C34.6867 5.34962 34.7838 6.20588 34.7931 7.0568C34.825 10.0223 34.8323 12.9878 34.8057 15.9534C34.7931 17.3533 34.6348 18.7439 34.1659 20.0804C33.5826 21.7428 32.4533 22.8435 30.7906 23.3965C29.4851 23.8307 28.131 23.9743 26.7696 23.9863C23.804 24.0124 20.8378 23.9943 17.8722 23.9943C17.8722 23.993 17.8722 23.9923 17.8722 23.991ZM13.9123 11.823C13.9123 13.0105 13.9104 14.1981 13.9123 15.3856C13.915 16.4817 14.7164 16.9733 15.6834 16.4676C17.9467 15.2854 20.206 14.0966 22.4699 12.9157C22.9128 12.6846 23.2301 12.372 23.2294 11.8417C23.2294 11.3134 22.9175 10.9995 22.4712 10.7684C20.2139 9.59953 17.962 8.42 15.7067 7.24649C14.7084 6.72752 13.913 7.22177 13.9117 8.35922C13.9104 9.51337 13.9117 10.6682 13.9117 11.8223L13.9123 11.823Z" fill="#90FF00"/>
</svg>
